<svg width="48" height="48" viewBox="0 0 48 48" fill="none" xmlns="http://www.w3.org/2000/svg">
<rect width="48" height="48" rx="8" fill="#849FE4"/>
<path d="M32.545 30.0325C36.4525 26.1275 37.1025 20.4425 33.995 17.3375C30.8875 14.2325 25.2025 14.8825 21.295 18.7875C17.3875 22.6925 18.5175 30.1575 19.845 31.4825C20.9175 32.555 28.6375 33.9375 32.545 30.0325Z" fill="#F89939"/>
<path d="M16.51 24.39C14.2425 22.125 10.9425 21.7475 9.14 23.5475C7.3375 25.35 7.715 28.6475 9.9825 30.9125C12.25 33.18 16.5825 32.5225 17.3525 31.755C17.975 31.1325 18.78 26.655 16.51 24.39Z" fill="#3499CD"/>
<path d="M38.955 29.4199C38.81 29.4199 38.7375 29.3324 38.7375 29.1549C38.7375 29.0224 38.825 28.7324 38.9975 28.2899C39.25 27.6424 39.3775 27.1774 39.3775 26.8949C39.3775 26.7249 39.3275 26.5824 39.2275 26.4699C39.1275 26.3574 39.0025 26.2999 38.8525 26.2999C38.6325 26.2999 38.38 26.4024 38.095 26.6099C37.81 26.8174 37.4275 27.1899 36.945 27.7299C37.015 27.3799 37.165 26.8999 37.39 26.2899L36.3125 26.4974C36.0675 27.0274 35.89 27.5049 35.78 27.9299C35.725 28.1374 35.685 28.3524 35.6575 28.5699C35.32 28.8974 35.1 29.0949 35.005 29.1674C34.9075 29.2399 34.805 29.2749 34.7 29.2749C34.6025 29.2749 34.525 29.2374 34.4675 29.1649C34.41 29.0924 34.3825 28.9924 34.3825 28.8699C34.3825 28.7374 34.4075 28.5849 34.4575 28.4124C34.5325 28.1537 34.6175 27.9149 34.79 27.4374L35.2 26.3074L34.7975 26.3249C34.4325 27.0199 34.005 27.3949 33.515 27.4474C33.6475 27.1024 33.715 26.8374 33.715 26.6524C33.715 26.4174 33.6 26.2999 33.37 26.2999C33.0975 26.2999 32.885 26.4274 32.7325 26.6849C32.5775 26.9424 32.5 27.1849 32.5 27.4124C32.5 27.7537 32.6275 27.7999 32.88 27.9124C32.715 28.1549 32.53 28.3824 32.33 28.5974C32.0925 28.8324 31.9075 29.0124 31.7725 29.1299C31.635 29.2524 31.5075 29.3124 31.3925 29.3124C31.2125 29.3124 31.1225 29.1849 31.1225 28.9324C31.1225 28.6799 31.2225 28.2449 31.4225 27.5949L31.8125 26.2999H31.565L30.6625 26.7999C30.515 26.4624 30.2575 26.2924 29.89 26.2924C29.5975 26.2924 29.2625 26.4174 28.8825 26.6649C28.5025 26.9124 28.19 27.2349 27.9475 27.6374C27.76 27.9474 27.645 28.2724 27.6025 28.6074C27.2625 28.9474 27.0075 29.1674 26.8375 29.2699C26.66 29.3749 26.475 29.4274 26.28 29.4274C25.7825 29.4274 25.475 29.1399 25.3575 28.5649C26.655 28.1849 27.3025 27.6899 27.3025 27.0799C27.3025 26.8499 27.22 26.6649 27.055 26.5224C26.89 26.3799 26.67 26.3099 26.3975 26.3099C25.87 26.3099 25.39 26.5624 24.9575 27.0674C24.565 27.5249 24.3525 28.0324 24.315 28.5899C23.9575 28.9424 23.6875 29.1749 23.5125 29.2874C23.3325 29.4024 23.1625 29.4599 23.005 29.4599C22.8475 29.4599 22.7225 29.3849 22.63 29.2349C22.535 29.0849 22.4875 28.8824 22.4875 28.6249C22.4875 28.5099 22.5 28.2999 22.5225 27.9924C23.1125 27.3524 23.545 26.7524 23.8225 26.1899C24.1 25.6274 24.2375 25.0449 24.2375 24.4449C24.2375 24.2324 24.21 24.0649 24.155 23.9399C24.1 23.8149 24.03 23.7524 23.945 23.7524C23.9275 23.7524 23.9 23.7574 23.865 23.7699L22.7425 24.1849C22.36 24.9149 22.0325 25.7124 21.765 26.5799C21.4975 27.4449 21.3625 28.1874 21.3625 28.8049C21.3625 29.2174 21.4575 29.5449 21.6525 29.7899C21.845 30.0349 22.1 30.1574 22.415 30.1574C22.69 30.1574 22.9775 30.0699 23.28 29.8949C23.5825 29.7199 23.9325 29.4474 24.335 29.0799C24.7375 28.7124 24.335 29.0749 24.335 29.0749C24.3825 29.3524 24.4975 29.5849 24.6775 29.7749C24.925 30.0299 25.2475 30.1599 25.6475 30.1599C26.0075 30.1599 26.335 30.0724 26.6325 29.8974C26.92 29.7299 27.2425 29.4674 27.6025 29.1199C27.6325 29.3799 27.7175 29.6049 27.86 29.7974C28.0425 30.0399 28.2625 30.1624 28.52 30.1624C28.7775 30.1624 29.0425 30.0624 29.2925 29.8624C29.5425 29.6624 29.8125 29.3499 30.1075 28.9299C30.08 29.7524 30.3 30.1624 30.765 30.1624C30.95 30.1624 31.145 30.0949 31.3475 29.9599C31.55 29.8249 31.8875 29.5324 32.36 29.0849C32.77 28.6799 33.07 28.2999 33.2625 27.9449C33.5225 27.8999 33.76 27.8224 33.9775 27.7099C33.5325 28.4074 33.31 28.9649 33.31 29.3799C33.31 29.6049 33.3725 29.7924 33.495 29.9424C33.6175 30.0924 33.77 30.1699 33.95 30.1699C34.3425 30.1699 34.9 29.8174 35.62 29.1199C35.62 29.1749 35.615 29.2274 35.615 29.2824C35.615 29.4774 35.6325 29.7724 35.6625 30.1699L36.64 29.9399C36.64 29.6749 36.645 29.4649 36.6525 29.3074C36.6675 29.0974 36.6975 28.8674 36.74 28.6174C36.7675 28.4699 36.835 28.3299 36.9425 28.1974L37.19 27.9099C37.28 27.8049 37.3675 27.7099 37.445 27.6274C37.5375 27.5299 37.62 27.4474 37.6925 27.3799C37.775 27.3074 37.8475 27.2474 37.91 27.2074C37.9775 27.1674 38.0325 27.1449 38.0725 27.1449C38.145 27.1449 38.1825 27.1924 38.1825 27.2874C38.1825 27.3824 38.1125 27.6024 37.975 27.9499C37.715 28.5974 37.585 29.0799 37.585 29.3949C37.585 29.6274 37.645 29.8124 37.7675 29.9524C37.8875 30.0899 38.0475 30.1599 38.245 30.1599C38.73 30.1599 39.315 29.7999 39.995 29.0824V28.5749C39.5125 29.1424 39.165 29.4274 38.95 29.4274L38.955 29.4199ZM22.64 27.3474C22.84 26.3699 23.045 25.6124 23.2525 25.0699C23.46 24.5274 23.62 24.2549 23.7275 24.2549C23.7775 24.2549 23.82 24.2874 23.8525 24.3549C23.885 24.4199 23.9 24.5099 23.9 24.6174C23.9 24.9899 23.785 25.4324 23.55 25.9499C23.3175 26.4649 23.0125 26.9324 22.64 27.3474ZM25.5875 27.1024C25.765 26.8049 25.95 26.6574 26.145 26.6574C26.35 26.6574 26.455 26.7999 26.455 27.0824C26.455 27.6549 26.0775 28.0449 25.3225 28.2574C25.3225 27.7824 25.41 27.3974 25.5875 27.1024ZM29.9575 28.5649C29.6975 29.0674 29.4175 29.3174 29.125 29.3174C29.005 29.3174 28.905 29.2674 28.8275 29.1699C28.75 29.0724 28.71 28.9424 28.71 28.7824C28.71 28.3624 28.8425 27.8999 29.105 27.3999C29.3675 26.8999 29.6475 26.6499 29.9425 26.6499C30.065 26.6499 30.165 26.6949 30.2375 26.7899C30.31 26.8824 30.3475 27.0124 30.3475 27.1774C30.3475 27.6024 30.2175 28.0649 29.9575 28.5674V28.5649Z" fill="#010101"/>
<path d="M26.865 24.22C26.9025 24.2725 26.92 24.34 26.92 24.42C26.92 24.5 26.8975 24.5725 26.8525 24.64C26.8075 24.7075 26.7425 24.7625 26.655 24.8C26.57 24.8375 26.4725 24.8575 26.365 24.8575C26.185 24.8575 26.05 24.82 25.955 24.745C25.86 24.67 25.8 24.56 25.775 24.4125L26.0075 24.375C26.02 24.4675 26.0575 24.54 26.115 24.5875C26.175 24.6375 26.2575 24.6625 26.365 24.6625C26.4725 24.6625 26.5525 24.64 26.605 24.5975C26.6575 24.555 26.6825 24.5025 26.6825 24.4425C26.6825 24.39 26.66 24.3475 26.6125 24.3175C26.58 24.2975 26.5 24.27 26.3725 24.2375C26.2 24.195 26.0825 24.1575 26.015 24.125C25.9475 24.0925 25.8975 24.05 25.865 23.9925C25.8325 23.935 25.8125 23.875 25.8125 23.8075C25.8125 23.745 25.8275 23.69 25.855 23.6375C25.8825 23.585 25.9225 23.5425 25.97 23.5075C26.0075 23.48 26.055 23.4575 26.1175 23.44C26.18 23.4225 26.2475 23.4125 26.32 23.4125C26.4275 23.4125 26.5225 23.4275 26.605 23.46C26.6875 23.49 26.7475 23.5325 26.7875 23.5875C26.8275 23.64 26.8525 23.7125 26.8675 23.8025L26.6375 23.8325C26.6275 23.7625 26.5975 23.705 26.5475 23.665C26.4975 23.625 26.4275 23.605 26.335 23.605C26.2275 23.605 26.15 23.6225 26.105 23.6575C26.06 23.6925 26.035 23.735 26.035 23.7825C26.035 23.8125 26.045 23.84 26.0625 23.865C26.0825 23.89 26.1125 23.91 26.1525 23.9275C26.175 23.935 26.245 23.955 26.36 23.9875C26.525 24.0325 26.64 24.0675 26.7075 24.095C26.7725 24.1225 26.825 24.165 26.8625 24.2175L26.865 24.22ZM27.9825 24.58C27.92 24.6375 27.845 24.665 27.7525 24.665C27.6375 24.665 27.545 24.6225 27.475 24.54C27.405 24.4575 27.3675 24.32 27.3675 24.135C27.3675 23.95 27.405 23.8175 27.4775 23.735C27.55 23.6525 27.6475 23.6075 27.765 23.6075C27.8425 23.6075 27.91 23.63 27.965 23.6775C28.02 23.725 28.0575 23.795 28.08 23.8875L28.3075 23.8525C28.28 23.7125 28.22 23.605 28.125 23.53C28.03 23.455 27.9075 23.4175 27.7575 23.4175C27.6375 23.4175 27.53 23.445 27.4275 23.5025C27.3275 23.5575 27.25 23.6425 27.2025 23.755C27.1525 23.8675 27.1275 23.9975 27.1275 24.1475C27.1275 24.3775 27.185 24.555 27.3 24.6775C27.415 24.8 27.5675 24.8625 27.755 24.8625C27.905 24.8625 28.0325 24.8175 28.1375 24.7275C28.24 24.6375 28.305 24.5125 28.33 24.355L28.1 24.325C28.0825 24.4425 28.045 24.5275 27.9825 24.585V24.58ZM28.53 24.825H28.765V23.445H28.53V24.825ZM28.53 23.1875H28.765V22.9175H28.53V23.1875ZM30.2125 23.4425H29.91L29.355 24.005V22.9175H29.12V24.8225H29.355V24.275L29.52 24.1175L29.9775 24.8225H30.2675L29.685 23.955L30.2125 23.4425ZM30.4525 23.1875H30.6875V22.9175H30.4525V23.1875ZM30.4525 24.825H30.6875V23.445H30.4525V24.825ZM31.555 24.615C31.5125 24.62 31.4775 24.625 31.4525 24.625C31.4175 24.625 31.39 24.62 31.3725 24.6075C31.355 24.595 31.34 24.58 31.3325 24.5625C31.325 24.5425 31.32 24.5 31.32 24.435V23.6275H31.555V23.445H31.32V22.9625L31.0875 23.1025V23.445H30.915V23.6275H31.0875V24.4225C31.0875 24.5625 31.0975 24.655 31.115 24.6975C31.135 24.7425 31.1675 24.7775 31.2125 24.8025C31.26 24.83 31.325 24.8425 31.41 24.8425C31.4625 24.8425 31.52 24.835 31.5875 24.8225L31.5525 24.615H31.555Z" fill="white"/>
</svg>
