<svg width="28" height="29" viewBox="0 0 28 29" fill="none" xmlns="http://www.w3.org/2000/svg">
<g id="logos:whatsapp-icon" clip-path="url(#clip0_346_459)">
<path id="Vector" d="M0.59752 13.9404C0.596863 16.3113 1.21636 18.6263 2.39433 20.6668L0.484863 27.6386L7.61961 25.7679C9.593 26.8421 11.804 27.405 14.0509 27.4052H14.0568C21.474 27.4052 27.5119 21.3696 27.515 13.951C27.5165 10.3562 26.1178 6.97582 23.5766 4.43263C21.0358 1.88966 17.6566 0.488457 14.0562 0.486816C6.63808 0.486816 0.600691 6.52213 0.597629 13.9404" fill="url(#paint0_linear_346_459)"/>
<path id="Vector_2" d="M0.117031 13.9361C0.116266 16.3924 0.757969 18.7902 1.97794 20.9037L0 28.1255L7.39058 26.1877C9.42692 27.2979 11.7196 27.8833 14.0526 27.8842H14.0586C21.742 27.8842 27.9967 21.6314 28 13.9473C28.0013 10.2233 26.5523 6.72142 23.9203 4.08712C21.288 1.45316 17.788 0.00153125 14.0586 0C6.37394 0 0.120094 6.25188 0.117031 13.9361ZM4.51839 20.5398L4.24244 20.1017C3.08241 18.2572 2.47012 16.1257 2.471 13.937C2.47341 7.55005 7.67134 2.35375 14.063 2.35375C17.1583 2.35506 20.0672 3.56169 22.2552 5.75094C24.443 7.94041 25.6469 10.8509 25.6461 13.9464C25.6433 20.3334 20.4452 25.5303 14.0586 25.5303H14.054C11.9745 25.5292 9.93497 24.9708 8.15631 23.9154L7.73303 23.6644L3.34731 24.8142L4.51839 20.5398Z" fill="url(#paint1_linear_346_459)"/>
<path id="Vector_3" d="M10.5741 8.11C10.3132 7.52998 10.0385 7.51828 9.79036 7.5081C9.58714 7.49935 9.35483 7.50001 9.12273 7.50001C8.89042 7.50001 8.51297 7.5874 8.19392 7.93576C7.87455 8.28445 6.97461 9.12707 6.97461 10.8409C6.97461 12.5547 8.22291 14.211 8.39692 14.4437C8.57116 14.6759 10.8068 18.3054 14.3475 19.7017C17.2901 20.862 17.8889 20.6312 18.5276 20.5731C19.1663 20.5151 20.5886 19.7307 20.8788 18.9172C21.1692 18.1039 21.1692 17.4068 21.0821 17.2611C20.9951 17.1159 20.7627 17.0288 20.4144 16.8546C20.066 16.6805 18.3533 15.8377 18.0341 15.7214C17.7147 15.6052 17.4825 15.5473 17.2502 15.8961C17.0179 16.2443 16.3508 17.0288 16.1475 17.2611C15.9443 17.4939 15.741 17.5229 15.3928 17.3487C15.0442 17.1739 13.9223 16.8065 12.5913 15.6199C11.5558 14.6966 10.8567 13.5563 10.6534 13.2075C10.4502 12.8593 10.6317 12.6705 10.8063 12.4969C10.9629 12.3408 11.1548 12.0902 11.3292 11.8868C11.5028 11.6834 11.5608 11.5382 11.677 11.3059C11.7932 11.0734 11.735 10.87 11.6481 10.6957C11.5608 10.5215 10.8839 8.79873 10.5741 8.11Z" fill="white"/>
</g>
<defs>
<linearGradient id="paint0_linear_346_459" x1="1351.99" y1="2715.67" x2="1351.99" y2="0.486816" gradientUnits="userSpaceOnUse">
<stop stop-color="#1FAF38"/>
<stop offset="1" stop-color="#60D669"/>
</linearGradient>
<linearGradient id="paint1_linear_346_459" x1="1400" y1="2812.55" x2="1400" y2="0" gradientUnits="userSpaceOnUse">
<stop stop-color="#F9F9F9"/>
<stop offset="1" stop-color="white"/>
</linearGradient>
<clipPath id="clip0_346_459">
<rect width="28" height="28.2188" fill="white"/>
</clipPath>
</defs>
</svg>
