<svg width="48" height="48" viewBox="0 0 48 48" fill="none" xmlns="http://www.w3.org/2000/svg">
<rect width="48" height="48" rx="8" fill="#849FE4"/>
<path d="M23.075 19.7751C22.525 18.0251 21.6 17.0751 21.375 16.2501C21.1 15.3001 22.2 14.6501 22.8 15.4251C22.5 14.6751 21.55 14.0251 21.45 12.7251C21.425 12.3251 21.575 11.6251 22.5 11.5001C22.325 10.4751 22.675 10.0001 23 9.8001C23.425 9.5501 23.875 9.6751 24.15 9.8751C26.65 11.7751 30.225 16.0751 31.975 22.1501C32.15 22.7501 32.275 23.2751 32.3 23.8001C32.325 24.2501 32.375 24.7751 32.375 25.8751C32.375 27.8251 32.175 30.2001 31.925 34.0251C31.925 34.2001 31.95 34.4501 32 34.6001C32.075 34.7501 32.1 34.9001 31.95 35.1001C30.8 36.3751 27.025 38.4001 24.625 38.7501C24.375 38.7751 24.275 38.6751 24.175 38.5751C23 37.5251 21.3 37.5001 19.7 36.3001C17.6 34.7001 15.8 32.6501 15.025 28.6251C14.9 27.9251 15.55 26.8751 16.75 27.2251C19.45 28.0501 18.125 30.9001 21.45 31.8501C23.975 32.5751 26.425 30.4251 26.4 28.3501C26.375 26.6501 25.8 24.8001 23.55 24.2751C20.625 23.5751 18.85 27.1001 17.15 26.9751C16.05 26.8751 15.6 26.3751 15.5 25.8001C15.375 25.0751 16.225 24.0001 18.55 22.0001C19.5 21.2001 21.15 20.1501 23.075 19.7751Z" fill="#FFCA28"/>
<mask id="mask0_346_129" style="mask-type:luminance" maskUnits="userSpaceOnUse" x="15" y="9" width="18" height="30">
<path d="M23.075 19.7751C22.525 18.0251 21.6 17.0751 21.375 16.2501C21.1 15.3001 22.2 14.6501 22.8 15.4251C22.5 14.6751 21.55 14.0251 21.45 12.7251C21.425 12.3251 21.575 11.6251 22.5 11.5001C22.325 10.4751 22.675 10.0001 23 9.8001C23.425 9.5501 23.875 9.6751 24.15 9.8751C26.65 11.7751 30.225 16.0751 31.975 22.1501C32.15 22.7501 32.275 23.2751 32.3 23.8001C32.325 24.2501 32.375 24.7751 32.375 25.8751C32.375 27.8251 32.175 30.2001 31.925 34.0251C31.925 34.2001 31.95 34.4501 32 34.6001C32.075 34.7501 32.1 34.9001 31.95 35.1001C30.8 36.3751 27.025 38.4001 24.625 38.7501C24.375 38.7751 24.275 38.6751 24.175 38.5751C23 37.5251 21.3 37.5001 19.7 36.3001C17.6 34.7001 15.8 32.6501 15.025 28.6251C14.9 27.9251 15.55 26.8751 16.75 27.2251C19.45 28.0501 18.125 30.9001 21.45 31.8501C23.975 32.5751 26.425 30.4251 26.4 28.3501C26.375 26.6501 25.8 24.8001 23.55 24.2751C20.625 23.5751 18.85 27.1001 17.15 26.9751C16.05 26.8751 15.6 26.3751 15.5 25.8001C15.375 25.0751 16.225 24.0001 18.55 22.0001C19.5 21.2001 21.15 20.1501 23.075 19.7751Z" fill="white"/>
</mask>
<g mask="url(#mask0_346_129)">
<path d="M30.425 16.5751C30.2 16.7001 29.475 17.1751 29.175 16.5501C28.875 15.9251 28.5 15.4501 27.75 14.4751C27 13.5001 25.425 11.6501 24 10.3501C23.775 10.1501 23.4 10.1251 23.2 10.2751C22.975 10.4251 22.625 10.9251 22.975 11.6001C23.325 12.2751 23.8 13.3001 24.1 13.9001C24.85 15.3001 26 16.6001 27.025 20.6251C27.175 21.2001 26.375 20.5001 26.375 20.5001C26.375 20.5001 25.025 19.3751 23.175 20.0001C22.375 20.2751 22.225 19.3751 22.225 19.3751C22.225 19.3751 19.95 12.9251 19.95 12.8751C19.95 12.8251 22.6 8.72511 22.625 8.75011C22.675 8.77511 24.65 8.85011 24.65 8.85011L30.425 16.5751ZM24.45 32.0251C23.975 32.3001 19.825 33.5501 18.375 29.8251C18.125 29.2251 17.825 28.7001 17.575 28.3501C17.3 28.0251 16.575 27.6251 16.15 27.7251C16.15 27.7251 15.525 27.8001 15.6 28.5751C15.625 28.8751 15.65 29.3001 16.075 30.5001C16.475 31.6001 15.55 31.5251 15.375 31.0251C15.2 30.5251 14.425 27.8751 14.425 27.8751C14.425 27.8751 15.3 26.8501 15.5 26.6251L14.8 25.4001L19.775 20.6251C19.925 20.8751 20.175 21.3251 19.925 21.5501C19.375 22.0251 18.1 22.9751 16.35 25.0251C16.075 25.3501 15.9 26.0751 16.75 26.4001C17.6 26.7251 17.2 27.1251 17 27.1001C16.925 27.1001 16.75 27.0501 16.525 27.0001C17.225 27.3501 18 27.7501 18 27.7501L24.625 31.0251C24.775 31.2251 24.85 31.8001 24.45 32.0251Z" fill="#FAA700"/>
</g>
<mask id="mask1_346_129" style="mask-type:luminance" maskUnits="userSpaceOnUse" x="15" y="9" width="18" height="30">
<path d="M23.075 19.7751C22.525 18.0251 21.6 17.0751 21.375 16.2501C21.1 15.3001 22.2 14.6501 22.8 15.4251C22.5 14.6751 21.55 14.0251 21.45 12.7251C21.425 12.3251 21.575 11.6251 22.5 11.5001C22.325 10.4751 22.675 10.0001 23 9.8001C23.425 9.5501 23.875 9.6751 24.15 9.8751C26.65 11.7751 30.225 16.0751 31.975 22.1501C32.15 22.7501 32.275 23.2751 32.3 23.8001C32.325 24.2501 32.375 24.7751 32.375 25.8751C32.375 27.8251 32.175 30.2001 31.925 34.0251C31.925 34.2001 31.95 34.4501 32 34.6001C32.075 34.7501 32.1 34.9001 31.95 35.1001C30.8 36.3751 27.025 38.4001 24.625 38.7501C24.375 38.7751 24.275 38.6751 24.175 38.5751C23 37.5251 21.3 37.5001 19.7 36.3001C17.6 34.7001 15.8 32.6501 15.025 28.6251C14.9 27.9251 15.55 26.8751 16.75 27.2251C19.45 28.0501 18.125 30.9001 21.45 31.8501C23.975 32.5751 26.425 30.4251 26.4 28.3501C26.375 26.6501 25.8 24.8001 23.55 24.2751C20.625 23.5751 18.85 27.1001 17.15 26.9751C16.05 26.8751 15.6 26.3751 15.5 25.8001C15.375 25.0751 16.225 24.0001 18.55 22.0001C19.5 21.2001 21.15 20.1501 23.075 19.7751Z" fill="white"/>
</mask>
<g mask="url(#mask1_346_129)">
<path d="M15.65 26.75C15.65 27.925 16.775 28.85 18.45 28.475C19.125 28.325 21.15 28.9 21.25 31.05C21.275 31.775 21.25 32.15 21.85 32.275C23.5 32.575 25.175 32.025 26.15 30.8C27.125 29.55 27.675 27.375 26.6 25.5C26.025 24.525 24.15 22.9 21.55 23.675C20.625 23.95 19.825 24.65 19.45 24.95C18.65 25.65 17.675 26.95 16.3 26.275C16.025 26.15 15.65 26.25 15.65 26.75ZM14.7 28C14.925 28 15.425 28 15.525 28.6C15.575 28.9 16.05 31.15 17.35 32.875C20.875 37.475 23.7 36.675 24.925 38.15C25.175 38.45 25.575 39.1 25.575 39.1L24.2 39.625C24.2 39.625 17.5 37.725 15.9 33.875C14.3 30.025 14.7 28 14.7 28ZM17.475 22.525C17.725 22.65 18.15 22.9 18.85 22.425C19.8 21.775 21.425 20.425 24.3 20.2C24.825 20.15 25.85 20.275 28.6 22.45C28.95 22.725 29.45 22.175 29 21.85C28.825 21.725 28.075 21.25 27.65 20.95C27.55 20.875 27.475 20.775 27.45 20.65C26.125 15.1 22.925 12.3 22.475 11.5C22.1 12.525 25.725 15.625 26.625 20.4C26.125 20.025 25.675 19.775 25.15 19.625C25.05 19.6 24.975 19.525 24.925 19.425C24.325 17.725 23.475 16.4 23.325 16.225C23.175 16.05 23.1 16.2 23.125 16.275C23.2 16.525 23.975 17.95 24.275 19.575C23.85 19.575 23.475 19.65 23.05 19.8C22.025 19.4 21.7 19.25 21.7 19.25L17.475 22.525Z" fill="#B55E19"/>
<path d="M27.0251 12.25C26.7751 12.675 26.8251 13.35 27.1501 13.75C29.2751 16.225 30.8501 20.475 31.2751 22C31.4001 22.45 31.6251 23.35 31.6751 24.175C31.8001 26.625 31.5501 30.8 31.2751 34.425C31.2501 34.875 31.5251 35.55 31.7001 35.85L33.1251 34.85L33.4751 22.475L29.3751 13.675L27.0251 12.25Z" fill="#B55E19"/>
</g>
</svg>
