<svg width="48" height="48" viewBox="0 0 48 48" fill="none" xmlns="http://www.w3.org/2000/svg">
<rect width="48" height="48" rx="8" fill="#849FE4"/>
<g clip-path="url(#clip0_346_284)">
<path d="M36.4444 14.2222H11.5556C10.6126 14.2222 9.70819 14.5968 9.0414 15.2636C8.3746 15.9304 8 16.8347 8 17.7777V31.1111C8 32.054 8.3746 32.9584 9.0414 33.6252C9.70819 34.292 10.6126 34.6666 11.5556 34.6666H21.7031C22.1653 35.1964 23.016 35.5555 24 35.5555C24.984 35.5555 25.8356 35.1964 26.2969 34.6666H36.4444C37.3874 34.6666 38.2918 34.292 38.9586 33.6252C39.6254 32.9584 40 32.054 40 31.1111V17.7777C40 16.8347 39.6254 15.9304 38.9586 15.2636C38.2918 14.5968 37.3874 14.2222 36.4444 14.2222Z" fill="#226699"/>
<path d="M25.7777 31.9999C25.7777 32.4714 25.5904 32.9236 25.257 33.257C24.9236 33.5904 24.4714 33.7777 23.9999 33.7777C23.5284 33.7777 23.0763 33.5904 22.7429 33.257C22.4095 32.9236 22.2222 32.4714 22.2222 31.9999V15.9999C22.2222 15.5284 22.4095 15.0763 22.7429 14.7429C23.0763 14.4095 23.5284 14.2222 23.9999 14.2222C24.4714 14.2222 24.9236 14.4095 25.257 14.7429C25.5904 15.0763 25.7777 15.5284 25.7777 15.9999V31.9999Z" fill="#292F33"/>
<path d="M24 31.111C24 31.5825 23.8127 32.0347 23.4793 32.3681C23.1459 32.7015 22.6937 32.8888 22.2222 32.8888H11.5555C11.0841 32.8888 10.6319 32.7015 10.2985 32.3681C9.96507 32.0347 9.77777 31.5825 9.77777 31.111V15.111C9.77777 14.6395 9.96507 14.1873 10.2985 13.854C10.6319 13.5206 11.0841 13.3333 11.5555 13.3333H22.2222C22.6937 13.3333 23.1459 13.5206 23.4793 13.854C23.8127 14.1873 24 14.6395 24 15.111V31.111Z" fill="#99AAB5"/>
<path d="M24 31.1112C23.112 29.3352 20.7493 29.3334 20.4444 29.3334C18.6667 29.3334 16 31.1112 13.3333 31.1112C12.4444 31.1112 11.5555 30.3148 11.5555 29.3334V15.1112C11.5555 14.1299 12.4444 13.3334 13.3333 13.3334C16.2267 13.3334 18.6667 11.5557 20.4444 11.5557C23.1111 11.5557 24 13.241 24 14.2223V31.1112Z" fill="#E1E8ED"/>
<path d="M38.2222 31.111C38.2222 31.5825 38.0349 32.0347 37.7015 32.3681C37.3681 32.7015 36.9159 32.8888 36.4444 32.8888H25.7778C25.3063 32.8888 24.8541 32.7015 24.5207 32.3681C24.1873 32.0347 24 31.5825 24 31.111V15.111C24 14.6395 24.1873 14.1873 24.5207 13.854C24.8541 13.5206 25.3063 13.3333 25.7778 13.3333H36.4444C36.9159 13.3333 37.3681 13.5206 37.7015 13.854C38.0349 14.1873 38.2222 14.6395 38.2222 15.111V31.111Z" fill="#99AAB5"/>
<path d="M24 31.1112C24.888 29.3352 27.2507 29.3334 27.5556 29.3334C29.3333 29.3334 32 31.1112 34.6667 31.1112C35.5556 31.1112 36.4444 30.3148 36.4444 29.3334V15.1112C36.4444 14.1299 35.5556 13.3334 34.6667 13.3334C31.7724 13.3334 29.3333 11.5557 27.5556 11.5557C24.8889 11.5557 24 13.241 24 14.2223V31.1112Z" fill="#CCD6DD"/>
</g>
<defs>
<clipPath id="clip0_346_284">
<rect width="32" height="32" fill="white" transform="translate(8 8)"/>
</clipPath>
</defs>
</svg>
