<svg width="48" height="48" viewBox="0 0 48 48" fill="none" xmlns="http://www.w3.org/2000/svg">
<rect width="48" height="48" rx="8" fill="#849FE4"/>
<path d="M24.295 23.4949C18.225 23.4949 13.295 28.4149 13.295 34.4949V37.9949H35.285V34.4949C35.285 28.4149 30.365 23.4949 24.295 23.4949Z" fill="#56436B"/>
<path d="M24.295 23.4949C18.225 23.4949 13.295 28.4149 13.295 34.4949V37.9949H35.285V34.4949C35.285 28.4149 30.365 23.4949 24.295 23.4949Z" fill="url(#paint0_radial_346_158)"/>
<path d="M24.295 23.4949C18.225 23.4949 13.295 28.4149 13.295 34.4949V37.9949H35.285V34.4949C35.285 28.4149 30.365 23.4949 24.295 23.4949Z" fill="url(#paint1_radial_346_158)"/>
<path d="M31.311 26.0939C31.335 26.0459 31.3422 25.9913 31.3315 25.9387C31.3208 25.8861 31.2929 25.8387 31.252 25.8039C29.396 24.2019 26.906 23.3179 24.298 23.3179C21.69 23.3179 19.185 24.2109 17.328 25.8049C17.287 25.8395 17.2588 25.8869 17.248 25.9395C17.2371 25.9921 17.2441 26.0468 17.268 26.0949C18.544 28.6949 21.024 30.7079 24.298 30.7079C27.572 30.7079 30.028 28.6939 31.311 26.0939Z" fill="url(#paint2_radial_346_158)"/>
<path d="M31.311 26.0939C31.335 26.0459 31.3422 25.9913 31.3315 25.9387C31.3208 25.8861 31.2929 25.8387 31.252 25.8039C29.396 24.2019 26.906 23.3179 24.298 23.3179C21.69 23.3179 19.185 24.2109 17.328 25.8049C17.287 25.8395 17.2588 25.8869 17.248 25.9395C17.2371 25.9921 17.2441 26.0468 17.268 26.0949C18.544 28.6949 21.024 30.7079 24.298 30.7079C27.572 30.7079 30.028 28.6939 31.311 26.0939Z" fill="url(#paint3_radial_346_158)"/>
<path d="M31.311 26.0939C31.335 26.0459 31.3422 25.9913 31.3315 25.9387C31.3208 25.8861 31.2929 25.8387 31.252 25.8039C29.396 24.2019 26.906 23.3179 24.298 23.3179C21.69 23.3179 19.185 24.2109 17.328 25.8049C17.287 25.8395 17.2588 25.8869 17.248 25.9395C17.2371 25.9921 17.2441 26.0468 17.268 26.0949C18.544 28.6949 21.024 30.7079 24.298 30.7079C27.572 30.7079 30.028 28.6939 31.311 26.0939Z" fill="url(#paint4_radial_346_158)"/>
<path d="M31.311 26.0939C31.335 26.0459 31.3422 25.9913 31.3315 25.9387C31.3208 25.8861 31.2929 25.8387 31.252 25.8039C29.396 24.2019 26.906 23.3179 24.298 23.3179C21.69 23.3179 19.185 24.2109 17.328 25.8049C17.287 25.8395 17.2588 25.8869 17.248 25.9395C17.2371 25.9921 17.2441 26.0468 17.268 26.0949C18.544 28.6949 21.024 30.7079 24.298 30.7079C27.572 30.7079 30.028 28.6939 31.311 26.0939Z" fill="url(#paint5_radial_346_158)"/>
<path d="M31.311 26.0939C31.335 26.0459 31.3422 25.9913 31.3315 25.9387C31.3208 25.8861 31.2929 25.8387 31.252 25.8039C29.396 24.2019 26.906 23.3179 24.298 23.3179C21.69 23.3179 19.185 24.2109 17.328 25.8049C17.287 25.8395 17.2588 25.8869 17.248 25.9395C17.2371 25.9921 17.2441 26.0468 17.268 26.0949C18.544 28.6949 21.024 30.7079 24.298 30.7079C27.572 30.7079 30.028 28.6939 31.311 26.0939Z" fill="url(#paint6_radial_346_158)"/>
<path d="M31.311 26.0939C31.335 26.0459 31.3422 25.9913 31.3315 25.9387C31.3208 25.8861 31.2929 25.8387 31.252 25.8039C29.396 24.2019 26.906 23.3179 24.298 23.3179C21.69 23.3179 19.185 24.2109 17.328 25.8049C17.287 25.8395 17.2588 25.8869 17.248 25.9395C17.2371 25.9921 17.2441 26.0468 17.268 26.0949C18.544 28.6949 21.024 30.7079 24.298 30.7079C27.572 30.7079 30.028 28.6939 31.311 26.0939Z" fill="url(#paint7_radial_346_158)"/>
<g filter="url(#filter0_f_346_158)">
<path d="M23.996 26.865C24.059 26.908 24.166 26.945 24.276 26.949C24.3751 26.9462 24.4718 26.9173 24.556 26.865C25.573 26.169 26.336 25.476 26.336 24.279V20.645C26.336 19.505 25.416 18.585 24.276 18.585C23.136 18.585 22.216 19.505 22.216 20.645V24.279C22.216 25.476 22.979 26.169 23.996 26.865Z" stroke="#1F0F21" stroke-width="0.2"/>
</g>
<path d="M23.996 26.865C24.059 26.908 24.166 26.945 24.276 26.949C24.3751 26.9462 24.4718 26.9173 24.556 26.865C25.573 26.169 26.336 25.476 26.336 24.279V20.645C26.336 19.505 25.416 18.585 24.276 18.585C23.136 18.585 22.216 19.505 22.216 20.645V24.279C22.216 25.476 22.979 26.169 23.996 26.865Z" fill="url(#paint8_radial_346_158)"/>
<path d="M23.996 26.865C24.059 26.908 24.166 26.945 24.276 26.949C24.3751 26.9462 24.4718 26.9173 24.556 26.865C25.573 26.169 26.336 25.476 26.336 24.279V20.645C26.336 19.505 25.416 18.585 24.276 18.585C23.136 18.585 22.216 19.505 22.216 20.645V24.279C22.216 25.476 22.979 26.169 23.996 26.865Z" fill="url(#paint9_radial_346_158)"/>
<path d="M23.996 26.865C24.059 26.908 24.166 26.945 24.276 26.949C24.3751 26.9462 24.4718 26.9173 24.556 26.865C25.573 26.169 26.336 25.476 26.336 24.279V20.645C26.336 19.505 25.416 18.585 24.276 18.585C23.136 18.585 22.216 19.505 22.216 20.645V24.279C22.216 25.476 22.979 26.169 23.996 26.865Z" fill="url(#paint10_radial_346_158)"/>
<path d="M33.023 19.6679V10.8049H32.223V19.6679H33.023Z" fill="url(#paint11_linear_346_158)"/>
<path d="M33.023 19.6679V10.8049H32.223V19.6679H33.023Z" fill="url(#paint12_radial_346_158)"/>
<path d="M32.223 19.6438C32.0596 19.7327 31.9304 19.8736 31.856 20.0441C31.7815 20.2146 31.766 20.4051 31.8119 20.5854C31.8577 20.7657 31.9624 20.9256 32.1093 21.0398C32.2562 21.154 32.4369 21.216 32.623 21.216C32.8091 21.216 32.9898 21.154 33.1367 21.0398C33.2836 20.9256 33.3883 20.7657 33.4342 20.5854C33.48 20.4051 33.4645 20.2146 33.3901 20.0441C33.3156 19.8736 33.1865 19.7327 33.023 19.6438H32.223Z" fill="url(#paint13_radial_346_158)"/>
<path d="M32.223 19.6438C32.0596 19.7327 31.9304 19.8736 31.856 20.0441C31.7815 20.2146 31.766 20.4051 31.8119 20.5854C31.8577 20.7657 31.9624 20.9256 32.1093 21.0398C32.2562 21.154 32.4369 21.216 32.623 21.216C32.8091 21.216 32.9898 21.154 33.1367 21.0398C33.2836 20.9256 33.3883 20.7657 33.4342 20.5854C33.48 20.4051 33.4645 20.2146 33.3901 20.0441C33.3156 19.8736 33.1865 19.7327 33.023 19.6438H32.223Z" fill="url(#paint14_radial_346_158)"/>
<g filter="url(#filter1_f_346_158)">
<path d="M32.726 11.709V19.476" stroke="url(#paint15_linear_346_158)" stroke-width="0.075"/>
</g>
<path d="M31.77 21.6048L31.253 23.8438C31.2377 23.9103 31.2377 23.9794 31.253 24.0459C31.2683 24.1123 31.2986 24.1745 31.3414 24.2276C31.3843 24.2806 31.4387 24.3233 31.5005 24.3522C31.5622 24.3812 31.6298 24.3958 31.698 24.3948H33.561C33.6286 24.3937 33.6951 24.3774 33.7555 24.3471C33.816 24.3169 33.8688 24.2733 33.9101 24.2198C33.9514 24.1663 33.9802 24.1042 33.9942 24.038C34.0082 23.9719 34.0071 23.9034 33.991 23.8378L33.449 21.5978C33.4222 21.4894 33.3599 21.3931 33.272 21.3242C33.1841 21.2553 33.0757 21.2179 32.964 21.2178H32.257C32.1439 21.2176 32.034 21.2557 31.9454 21.326C31.8568 21.3963 31.7946 21.4946 31.769 21.6048" fill="url(#paint16_linear_346_158)"/>
<path d="M31.77 21.6048L31.253 23.8438C31.2377 23.9103 31.2377 23.9794 31.253 24.0459C31.2683 24.1123 31.2986 24.1745 31.3414 24.2276C31.3843 24.2806 31.4387 24.3233 31.5005 24.3522C31.5622 24.3812 31.6298 24.3958 31.698 24.3948H33.561C33.6286 24.3937 33.6951 24.3774 33.7555 24.3471C33.816 24.3169 33.8688 24.2733 33.9101 24.2198C33.9514 24.1663 33.9802 24.1042 33.9942 24.038C34.0082 23.9719 34.0071 23.9034 33.991 23.8378L33.449 21.5978C33.4222 21.4894 33.3599 21.3931 33.272 21.3242C33.1841 21.2553 33.0757 21.2179 32.964 21.2178H32.257C32.1439 21.2176 32.034 21.2557 31.9454 21.326C31.8568 21.3963 31.7946 21.4946 31.769 21.6048" fill="url(#paint17_linear_346_158)"/>
<path d="M31.77 21.6048L31.253 23.8438C31.2377 23.9103 31.2377 23.9794 31.253 24.0459C31.2683 24.1123 31.2986 24.1745 31.3414 24.2276C31.3843 24.2806 31.4387 24.3233 31.5005 24.3522C31.5622 24.3812 31.6298 24.3958 31.698 24.3948H33.561C33.6286 24.3937 33.6951 24.3774 33.7555 24.3471C33.816 24.3169 33.8688 24.2733 33.9101 24.2198C33.9514 24.1663 33.9802 24.1042 33.9942 24.038C34.0082 23.9719 34.0071 23.9034 33.991 23.8378L33.449 21.5978C33.4222 21.4894 33.3599 21.3931 33.272 21.3242C33.1841 21.2553 33.0757 21.2179 32.964 21.2178H32.257C32.1439 21.2176 32.034 21.2557 31.9454 21.326C31.8568 21.3963 31.7946 21.4946 31.769 21.6048" fill="url(#paint18_radial_346_158)"/>
<path d="M31.77 21.6048L31.253 23.8438C31.2377 23.9103 31.2377 23.9794 31.253 24.0459C31.2683 24.1123 31.2986 24.1745 31.3414 24.2276C31.3843 24.2806 31.4387 24.3233 31.5005 24.3522C31.5622 24.3812 31.6298 24.3958 31.698 24.3948H33.561C33.6286 24.3937 33.6951 24.3774 33.7555 24.3471C33.816 24.3169 33.8688 24.2733 33.9101 24.2198C33.9514 24.1663 33.9802 24.1042 33.9942 24.038C34.0082 23.9719 34.0071 23.9034 33.991 23.8378L33.449 21.5978C33.4222 21.4894 33.3599 21.3931 33.272 21.3242C33.1841 21.2553 33.0757 21.2179 32.964 21.2178H32.257C32.1439 21.2176 32.034 21.2557 31.9454 21.326C31.8568 21.3963 31.7946 21.4946 31.769 21.6048" fill="url(#paint19_radial_346_158)"/>
<path d="M31.77 21.6048L31.253 23.8438C31.2377 23.9103 31.2377 23.9794 31.253 24.0459C31.2683 24.1123 31.2986 24.1745 31.3414 24.2276C31.3843 24.2806 31.4387 24.3233 31.5005 24.3522C31.5622 24.3812 31.6298 24.3958 31.698 24.3948H33.561C33.6286 24.3937 33.6951 24.3774 33.7555 24.3471C33.816 24.3169 33.8688 24.2733 33.9101 24.2198C33.9514 24.1663 33.9802 24.1042 33.9942 24.038C34.0082 23.9719 34.0071 23.9034 33.991 23.8378L33.449 21.5978C33.4222 21.4894 33.3599 21.3931 33.272 21.3242C33.1841 21.2553 33.0757 21.2179 32.964 21.2178H32.257C32.1439 21.2176 32.034 21.2557 31.9454 21.326C31.8568 21.3963 31.7946 21.4946 31.769 21.6048" fill="url(#paint20_radial_346_158)"/>
<path d="M17.06 37.995V26.21C15.876 27.2412 14.9272 28.5146 14.2776 29.9441C13.6281 31.3736 13.293 32.9258 13.295 34.496V37.996L17.06 37.995Z" fill="url(#paint21_radial_346_158)"/>
<path d="M17.06 37.995V26.21C15.876 27.2412 14.9272 28.5146 14.2776 29.9441C13.6281 31.3736 13.293 32.9258 13.295 34.496V37.996L17.06 37.995Z" fill="url(#paint22_radial_346_158)"/>
<path d="M17.06 37.995V26.21C15.876 27.2412 14.9272 28.5146 14.2776 29.9441C13.6281 31.3736 13.293 32.9258 13.295 34.496V37.996L17.06 37.995Z" fill="url(#paint23_linear_346_158)"/>
<path d="M31.52 37.995V26.21C32.704 27.2412 33.6528 28.5146 34.3024 29.9441C34.9519 31.3736 35.287 32.9258 35.285 34.496V37.996L31.52 37.995Z" fill="url(#paint24_radial_346_158)"/>
<path d="M31.52 37.995V26.21C32.704 27.2412 33.6528 28.5146 34.3024 29.9441C34.9519 31.3736 35.287 32.9258 35.285 34.496V37.996L31.52 37.995Z" fill="url(#paint25_radial_346_158)"/>
<g filter="url(#filter2_f_346_158)">
<path d="M19.958 31.7709C19.958 31.5829 20.113 31.4309 20.304 31.4309C20.495 31.4309 20.649 31.5829 20.649 31.7709V37.8639H19.958V31.7709Z" fill="url(#paint26_linear_346_158)"/>
<path d="M23.944 31.7709C23.944 31.5829 24.099 31.4309 24.29 31.4309C24.481 31.4309 24.636 31.5829 24.636 31.7709V37.8639H23.944V31.7709Z" fill="url(#paint27_linear_346_158)"/>
<path d="M27.93 31.7709C27.93 31.5829 28.085 31.4309 28.276 31.4309C28.467 31.4309 28.622 31.5829 28.622 31.7709V37.8639H27.931L27.93 31.7709Z" fill="url(#paint28_linear_346_158)"/>
</g>
<g filter="url(#filter3_f_346_158)">
<path d="M28.568 13.1199H26.445C26.3787 13.1175 26.3135 13.1016 26.2534 13.0734C26.1934 13.0451 26.1397 13.0049 26.0955 12.9554C26.0514 12.9058 26.0177 12.8478 25.9966 12.7849C25.9755 12.7219 25.9673 12.6554 25.9726 12.5892C25.9778 12.523 25.9964 12.4586 26.0272 12.3998C26.0581 12.341 26.1005 12.2891 26.1519 12.2471C26.2033 12.2051 26.2627 12.174 26.3265 12.1556C26.3903 12.1371 26.4571 12.1318 26.523 12.1399C27.074 12.2279 27.806 12.3499 28.296 12.4719C29.403 12.7459 29.709 13.2849 29.794 13.6699C29.6445 13.4915 29.4565 13.3494 29.2441 13.2541C29.0318 13.1589 28.8006 13.113 28.568 13.1199Z" fill="#504A4C"/>
</g>
<g filter="url(#filter4_f_346_158)">
<path d="M28.568 13.0579H26.445C26.3787 13.0555 26.3135 13.0396 26.2534 13.0114C26.1934 12.9831 26.1397 12.9429 26.0955 12.8934C26.0514 12.8438 26.0177 12.7858 25.9966 12.7228C25.9755 12.6599 25.9673 12.5934 25.9726 12.5272C25.9778 12.461 25.9964 12.3966 26.0272 12.3378C26.0581 12.279 26.1005 12.227 26.1519 12.1851C26.2033 12.1431 26.2627 12.112 26.3265 12.0935C26.3903 12.0751 26.4571 12.0698 26.523 12.0779C27.074 12.1649 27.806 12.2879 28.296 12.4079C29.403 12.6829 29.709 13.2219 29.794 13.6069C29.6445 13.4285 29.4565 13.2864 29.2441 13.1911C29.0318 13.0959 28.8006 13.051 28.568 13.0579Z" fill="#49373D"/>
</g>
<g filter="url(#filter5_f_346_158)">
<path d="M28.794 13.1049H26.606C26.5361 13.1044 26.4671 13.0896 26.4032 13.0612C26.3394 13.0329 26.282 12.9917 26.2348 12.9402C26.1876 12.8887 26.1515 12.8281 26.1288 12.762C26.1061 12.6959 26.0972 12.6259 26.1028 12.5563C26.1084 12.4866 26.1283 12.4189 26.1612 12.3573C26.1942 12.2957 26.2395 12.2415 26.2943 12.1982C26.3491 12.1549 26.4123 12.1234 26.4799 12.1056C26.5474 12.0878 26.6179 12.0842 26.687 12.0949C27.255 12.1849 28.009 12.3109 28.514 12.4349C29.655 12.7189 29.97 13.2749 30.058 13.6709C29.9031 13.4879 29.7092 13.342 29.4904 13.244C29.2716 13.146 29.0336 13.0985 28.794 13.1049Z" fill="#725050"/>
</g>
<path d="M29.226 20.0779C29.557 20.0668 29.8773 19.9575 30.146 19.7639V20.7119C30.146 21.6219 29.605 22.4319 28.781 22.7679C28.9557 22.3972 29.073 21.9966 29.133 21.5659L29.226 20.0779Z" fill="url(#paint29_radial_346_158)"/>
<path d="M19.325 20.0779C18.9939 20.0668 18.6737 19.9575 18.405 19.7639V20.7119C18.405 21.6219 18.946 22.4319 19.77 22.7679C19.5932 22.3871 19.4746 21.9819 19.418 21.5659L19.325 20.0779Z" fill="url(#paint30_radial_346_158)"/>
<g filter="url(#filter6_ii_346_158)">
<path d="M19.363 21.62C19.4894 22.5797 19.9604 23.4607 20.6882 24.0989C21.416 24.7371 22.351 25.089 23.319 25.089H25.24C26.208 25.0893 27.1431 24.7377 27.8711 24.0996C28.5991 23.4616 29.0704 22.5807 29.197 21.621C29.317 19.703 29.437 17.792 29.527 15.875C29.5229 15.4988 29.3752 15.1384 29.1143 14.8674C28.8533 14.5964 28.4988 14.4353 28.123 14.417H26.697C26.2197 14.4157 25.7531 14.2762 25.3534 14.0153C24.9537 13.7545 24.6382 13.3834 24.445 12.947C24.3944 12.8219 24.3078 12.7148 24.1962 12.6391C24.0845 12.5634 23.9529 12.5226 23.818 12.522H22.522C20.642 12.522 19.12 14.062 19.12 15.962C19.12 17.857 19.238 19.722 19.363 21.621" fill="url(#paint31_radial_346_158)"/>
</g>
<path d="M19.363 21.62C19.4894 22.5797 19.9604 23.4607 20.6882 24.0989C21.416 24.7371 22.351 25.089 23.319 25.089H25.24C26.208 25.0893 27.1431 24.7377 27.8711 24.0996C28.5991 23.4616 29.0704 22.5807 29.197 21.621C29.317 19.703 29.437 17.792 29.527 15.875C29.5229 15.4988 29.3752 15.1384 29.1143 14.8674C28.8533 14.5964 28.4988 14.4353 28.123 14.417H26.697C26.2197 14.4157 25.7531 14.2762 25.3534 14.0153C24.9537 13.7545 24.6382 13.3834 24.445 12.947C24.3944 12.8219 24.3078 12.7148 24.1962 12.6391C24.0845 12.5634 23.9529 12.5226 23.818 12.522H22.522C20.642 12.522 19.12 14.062 19.12 15.962C19.12 17.857 19.238 19.722 19.363 21.621" fill="url(#paint32_linear_346_158)"/>
<path d="M19.363 21.62C19.4894 22.5797 19.9604 23.4607 20.6882 24.0989C21.416 24.7371 22.351 25.089 23.319 25.089H25.24C26.208 25.0893 27.1431 24.7377 27.8711 24.0996C28.5991 23.4616 29.0704 22.5807 29.197 21.621C29.317 19.703 29.437 17.792 29.527 15.875C29.5229 15.4988 29.3752 15.1384 29.1143 14.8674C28.8533 14.5964 28.4988 14.4353 28.123 14.417H26.697C26.2197 14.4157 25.7531 14.2762 25.3534 14.0153C24.9537 13.7545 24.6382 13.3834 24.445 12.947C24.3944 12.8219 24.3078 12.7148 24.1962 12.6391C24.0845 12.5634 23.9529 12.5226 23.818 12.522H22.522C20.642 12.522 19.12 14.062 19.12 15.962C19.12 17.857 19.238 19.722 19.363 21.621" fill="url(#paint33_radial_346_158)"/>
<path d="M19.363 21.62C19.4894 22.5797 19.9604 23.4607 20.6882 24.0989C21.416 24.7371 22.351 25.089 23.319 25.089H25.24C26.208 25.0893 27.1431 24.7377 27.8711 24.0996C28.5991 23.4616 29.0704 22.5807 29.197 21.621C29.317 19.703 29.437 17.792 29.527 15.875C29.5229 15.4988 29.3752 15.1384 29.1143 14.8674C28.8533 14.5964 28.4988 14.4353 28.123 14.417H26.697C26.2197 14.4157 25.7531 14.2762 25.3534 14.0153C24.9537 13.7545 24.6382 13.3834 24.445 12.947C24.3944 12.8219 24.3078 12.7148 24.1962 12.6391C24.0845 12.5634 23.9529 12.5226 23.818 12.522H22.522C20.642 12.522 19.12 14.062 19.12 15.962C19.12 17.857 19.238 19.722 19.363 21.621" fill="url(#paint34_radial_346_158)"/>
<path d="M19.363 21.62C19.4894 22.5797 19.9604 23.4607 20.6882 24.0989C21.416 24.7371 22.351 25.089 23.319 25.089H25.24C26.208 25.0893 27.1431 24.7377 27.8711 24.0996C28.5991 23.4616 29.0704 22.5807 29.197 21.621C29.317 19.703 29.437 17.792 29.527 15.875C29.5229 15.4988 29.3752 15.1384 29.1143 14.8674C28.8533 14.5964 28.4988 14.4353 28.123 14.417H26.697C26.2197 14.4157 25.7531 14.2762 25.3534 14.0153C24.9537 13.7545 24.6382 13.3834 24.445 12.947C24.3944 12.8219 24.3078 12.7148 24.1962 12.6391C24.0845 12.5634 23.9529 12.5226 23.818 12.522H22.522C20.642 12.522 19.12 14.062 19.12 15.962C19.12 17.857 19.238 19.722 19.363 21.621" fill="url(#paint35_radial_346_158)"/>
<path d="M19.363 21.62C19.4894 22.5797 19.9604 23.4607 20.6882 24.0989C21.416 24.7371 22.351 25.089 23.319 25.089H25.24C26.208 25.0893 27.1431 24.7377 27.8711 24.0996C28.5991 23.4616 29.0704 22.5807 29.197 21.621C29.317 19.703 29.437 17.792 29.527 15.875C29.5229 15.4988 29.3752 15.1384 29.1143 14.8674C28.8533 14.5964 28.4988 14.4353 28.123 14.417H26.697C26.2197 14.4157 25.7531 14.2762 25.3534 14.0153C24.9537 13.7545 24.6382 13.3834 24.445 12.947C24.3944 12.8219 24.3078 12.7148 24.1962 12.6391C24.0845 12.5634 23.9529 12.5226 23.818 12.522H22.522C20.642 12.522 19.12 14.062 19.12 15.962C19.12 17.857 19.238 19.722 19.363 21.621" fill="url(#paint36_radial_346_158)"/>
<path d="M19.363 21.62C19.4894 22.5797 19.9604 23.4607 20.6882 24.0989C21.416 24.7371 22.351 25.089 23.319 25.089H25.24C26.208 25.0893 27.1431 24.7377 27.8711 24.0996C28.5991 23.4616 29.0704 22.5807 29.197 21.621C29.317 19.703 29.437 17.792 29.527 15.875C29.5229 15.4988 29.3752 15.1384 29.1143 14.8674C28.8533 14.5964 28.4988 14.4353 28.123 14.417H26.697C26.2197 14.4157 25.7531 14.2762 25.3534 14.0153C24.9537 13.7545 24.6382 13.3834 24.445 12.947C24.3944 12.8219 24.3078 12.7148 24.1962 12.6391C24.0845 12.5634 23.9529 12.5226 23.818 12.522H22.522C20.642 12.522 19.12 14.062 19.12 15.962C19.12 17.857 19.238 19.722 19.363 21.621" fill="url(#paint37_radial_346_158)"/>
<path d="M19.363 21.62C19.4894 22.5797 19.9604 23.4607 20.6882 24.0989C21.416 24.7371 22.351 25.089 23.319 25.089H25.24C26.208 25.0893 27.1431 24.7377 27.8711 24.0996C28.5991 23.4616 29.0704 22.5807 29.197 21.621C29.317 19.703 29.437 17.792 29.527 15.875C29.5229 15.4988 29.3752 15.1384 29.1143 14.8674C28.8533 14.5964 28.4988 14.4353 28.123 14.417H26.697C26.2197 14.4157 25.7531 14.2762 25.3534 14.0153C24.9537 13.7545 24.6382 13.3834 24.445 12.947C24.3944 12.8219 24.3078 12.7148 24.1962 12.6391C24.0845 12.5634 23.9529 12.5226 23.818 12.522H22.522C20.642 12.522 19.12 14.062 19.12 15.962C19.12 17.857 19.238 19.722 19.363 21.621" fill="url(#paint38_radial_346_158)"/>
<path d="M19.363 21.62C19.4894 22.5797 19.9604 23.4607 20.6882 24.0989C21.416 24.7371 22.351 25.089 23.319 25.089H25.24C26.208 25.0893 27.1431 24.7377 27.8711 24.0996C28.5991 23.4616 29.0704 22.5807 29.197 21.621C29.317 19.703 29.437 17.792 29.527 15.875C29.5229 15.4988 29.3752 15.1384 29.1143 14.8674C28.8533 14.5964 28.4988 14.4353 28.123 14.417H26.697C26.2197 14.4157 25.7531 14.2762 25.3534 14.0153C24.9537 13.7545 24.6382 13.3834 24.445 12.947C24.3944 12.8219 24.3078 12.7148 24.1962 12.6391C24.0845 12.5634 23.9529 12.5226 23.818 12.522H22.522C20.642 12.522 19.12 14.062 19.12 15.962C19.12 17.857 19.238 19.722 19.363 21.621" fill="url(#paint39_radial_346_158)"/>
<g filter="url(#filter7_f_346_158)">
<path d="M23.867 18.2719L23.265 20.1439C23.162 20.5289 23.409 20.9139 23.758 20.9139H24.503C24.853 20.9139 25.099 20.5229 24.997 20.1439L24.493 18.2719C24.385 17.8569 23.98 17.8569 23.867 18.2719Z" fill="#D69790"/>
</g>
<g filter="url(#filter8_f_346_158)">
<path d="M23.886 18.0779L23.345 19.9499C23.235 20.3349 23.5 20.7199 23.875 20.7199H24.675C25.051 20.7199 25.316 20.3289 25.206 19.9499L24.665 18.0779C24.549 17.6629 24.008 17.6629 23.886 18.0779Z" fill="#DEAB9D"/>
<path d="M23.886 18.0779L23.345 19.9499C23.235 20.3349 23.5 20.7199 23.875 20.7199H24.675C25.051 20.7199 25.316 20.3289 25.206 19.9499L24.665 18.0779C24.549 17.6629 24.008 17.6629 23.886 18.0779Z" fill="url(#paint40_linear_346_158)"/>
<path d="M23.886 18.0779L23.345 19.9499C23.235 20.3349 23.5 20.7199 23.875 20.7199H24.675C25.051 20.7199 25.316 20.3289 25.206 19.9499L24.665 18.0779C24.549 17.6629 24.008 17.6629 23.886 18.0779Z" fill="url(#paint41_radial_346_158)"/>
<path d="M23.886 18.0779L23.345 19.9499C23.235 20.3349 23.5 20.7199 23.875 20.7199H24.675C25.051 20.7199 25.316 20.3289 25.206 19.9499L24.665 18.0779C24.549 17.6629 24.008 17.6629 23.886 18.0779Z" fill="url(#paint42_linear_346_158)"/>
<path d="M23.886 18.0779L23.345 19.9499C23.235 20.3349 23.5 20.7199 23.875 20.7199H24.675C25.051 20.7199 25.316 20.3289 25.206 19.9499L24.665 18.0779C24.549 17.6629 24.008 17.6629 23.886 18.0779Z" fill="url(#paint43_radial_346_158)"/>
<path d="M23.886 18.0779L23.345 19.9499C23.235 20.3349 23.5 20.7199 23.875 20.7199H24.675C25.051 20.7199 25.316 20.3289 25.206 19.9499L24.665 18.0779C24.549 17.6629 24.008 17.6629 23.886 18.0779Z" fill="url(#paint44_linear_346_158)"/>
</g>
<g filter="url(#filter9_f_346_158)">
<path d="M22.9 21.3539C22.8553 21.3305 22.8032 21.3224 22.7535 21.3309C22.7038 21.3394 22.6583 21.364 22.624 21.4009C22.5886 21.4366 22.5668 21.4836 22.5626 21.5337C22.5584 21.5838 22.572 21.6338 22.601 21.6749C22.956 22.2119 23.573 22.5689 24.275 22.5689C24.978 22.5689 25.595 22.2119 25.95 21.6739C25.978 21.6322 25.9908 21.5822 25.9865 21.5321C25.9821 21.4821 25.9608 21.4351 25.926 21.3989C25.8916 21.3624 25.8462 21.3381 25.7967 21.3298C25.7472 21.3215 25.6964 21.3296 25.652 21.3529C25.2256 21.5701 24.7535 21.6823 24.275 21.6799C23.7969 21.6824 23.3261 21.5706 22.9 21.3539Z" stroke="url(#paint45_linear_346_158)" stroke-width="0.075"/>
</g>
<path d="M24.275 21.7549C23.7849 21.7578 23.3014 21.6429 22.865 21.4199C22.725 21.3499 22.575 21.5059 22.663 21.6329C23.004 22.1499 23.598 22.4939 24.275 22.4939C24.952 22.4939 25.547 22.1499 25.888 21.6329C25.975 21.5009 25.826 21.3489 25.686 21.4199C25.2497 21.6433 24.7651 21.7582 24.275 21.7549Z" fill="url(#paint46_radial_346_158)"/>
<g filter="url(#filter10_ii_346_158)">
<path d="M29.219 12.0408C29.743 12.2208 30.213 12.5868 30.509 13.1108C30.7363 13.5059 30.8469 13.9574 30.828 14.4128C30.809 14.8682 30.6613 15.309 30.402 15.6838C30.2237 15.9465 30.1276 16.2563 30.126 16.5738V17.7838C29.9204 17.6472 29.689 17.5542 29.446 17.5108L29.526 15.8748C29.5218 15.4988 29.3744 15.1385 29.1136 14.8676C28.8529 14.5966 28.4985 14.4354 28.123 14.4168H26.697C26.2197 14.4156 25.753 14.2761 25.3534 14.0152C24.9537 13.7543 24.6382 13.3832 24.445 12.9468C24.3944 12.8218 24.3078 12.7146 24.1961 12.6389C24.0845 12.5633 23.9528 12.5225 23.818 12.5218H22.522C20.642 12.5218 19.12 14.0618 19.12 15.9618L19.15 17.5278C18.8888 17.5609 18.6385 17.6529 18.418 17.7968V16.5738C18.4163 16.2563 18.3202 15.9465 18.142 15.6838C17.8949 15.3207 17.7508 14.8974 17.7251 14.459C17.6994 14.0205 17.793 13.5833 17.996 13.1938C18.277 12.6583 18.7499 12.2487 19.32 12.0468C19.9046 11.8411 20.4019 11.4426 20.73 10.9168C21.15 10.2438 21.884 10.1848 22.732 10.1848C23.062 10.1848 23.375 10.2548 23.666 10.3748C24.056 10.5448 24.493 10.5448 24.881 10.3748C25.168 10.2548 25.481 10.1848 25.811 10.1848C26.669 10.1848 27.426 10.2608 27.841 10.9488C28.155 11.4678 28.646 11.8448 29.219 12.0408Z" fill="url(#paint47_linear_346_158)"/>
<path d="M29.219 12.0408C29.743 12.2208 30.213 12.5868 30.509 13.1108C30.7363 13.5059 30.8469 13.9574 30.828 14.4128C30.809 14.8682 30.6613 15.309 30.402 15.6838C30.2237 15.9465 30.1276 16.2563 30.126 16.5738V17.7838C29.9204 17.6472 29.689 17.5542 29.446 17.5108L29.526 15.8748C29.5218 15.4988 29.3744 15.1385 29.1136 14.8676C28.8529 14.5966 28.4985 14.4354 28.123 14.4168H26.697C26.2197 14.4156 25.753 14.2761 25.3534 14.0152C24.9537 13.7543 24.6382 13.3832 24.445 12.9468C24.3944 12.8218 24.3078 12.7146 24.1961 12.6389C24.0845 12.5633 23.9528 12.5225 23.818 12.5218H22.522C20.642 12.5218 19.12 14.0618 19.12 15.9618L19.15 17.5278C18.8888 17.5609 18.6385 17.6529 18.418 17.7968V16.5738C18.4163 16.2563 18.3202 15.9465 18.142 15.6838C17.8949 15.3207 17.7508 14.8974 17.7251 14.459C17.6994 14.0205 17.793 13.5833 17.996 13.1938C18.277 12.6583 18.7499 12.2487 19.32 12.0468C19.9046 11.8411 20.4019 11.4426 20.73 10.9168C21.15 10.2438 21.884 10.1848 22.732 10.1848C23.062 10.1848 23.375 10.2548 23.666 10.3748C24.056 10.5448 24.493 10.5448 24.881 10.3748C25.168 10.2548 25.481 10.1848 25.811 10.1848C26.669 10.1848 27.426 10.2608 27.841 10.9488C28.155 11.4678 28.646 11.8448 29.219 12.0408Z" fill="url(#paint48_radial_346_158)"/>
<path d="M29.219 12.0408C29.743 12.2208 30.213 12.5868 30.509 13.1108C30.7363 13.5059 30.8469 13.9574 30.828 14.4128C30.809 14.8682 30.6613 15.309 30.402 15.6838C30.2237 15.9465 30.1276 16.2563 30.126 16.5738V17.7838C29.9204 17.6472 29.689 17.5542 29.446 17.5108L29.526 15.8748C29.5218 15.4988 29.3744 15.1385 29.1136 14.8676C28.8529 14.5966 28.4985 14.4354 28.123 14.4168H26.697C26.2197 14.4156 25.753 14.2761 25.3534 14.0152C24.9537 13.7543 24.6382 13.3832 24.445 12.9468C24.3944 12.8218 24.3078 12.7146 24.1961 12.6389C24.0845 12.5633 23.9528 12.5225 23.818 12.5218H22.522C20.642 12.5218 19.12 14.0618 19.12 15.9618L19.15 17.5278C18.8888 17.5609 18.6385 17.6529 18.418 17.7968V16.5738C18.4163 16.2563 18.3202 15.9465 18.142 15.6838C17.8949 15.3207 17.7508 14.8974 17.7251 14.459C17.6994 14.0205 17.793 13.5833 17.996 13.1938C18.277 12.6583 18.7499 12.2487 19.32 12.0468C19.9046 11.8411 20.4019 11.4426 20.73 10.9168C21.15 10.2438 21.884 10.1848 22.732 10.1848C23.062 10.1848 23.375 10.2548 23.666 10.3748C24.056 10.5448 24.493 10.5448 24.881 10.3748C25.168 10.2548 25.481 10.1848 25.811 10.1848C26.669 10.1848 27.426 10.2608 27.841 10.9488C28.155 11.4678 28.646 11.8448 29.219 12.0408Z" fill="url(#paint49_radial_346_158)"/>
<path d="M29.219 12.0408C29.743 12.2208 30.213 12.5868 30.509 13.1108C30.7363 13.5059 30.8469 13.9574 30.828 14.4128C30.809 14.8682 30.6613 15.309 30.402 15.6838C30.2237 15.9465 30.1276 16.2563 30.126 16.5738V17.7838C29.9204 17.6472 29.689 17.5542 29.446 17.5108L29.526 15.8748C29.5218 15.4988 29.3744 15.1385 29.1136 14.8676C28.8529 14.5966 28.4985 14.4354 28.123 14.4168H26.697C26.2197 14.4156 25.753 14.2761 25.3534 14.0152C24.9537 13.7543 24.6382 13.3832 24.445 12.9468C24.3944 12.8218 24.3078 12.7146 24.1961 12.6389C24.0845 12.5633 23.9528 12.5225 23.818 12.5218H22.522C20.642 12.5218 19.12 14.0618 19.12 15.9618L19.15 17.5278C18.8888 17.5609 18.6385 17.6529 18.418 17.7968V16.5738C18.4163 16.2563 18.3202 15.9465 18.142 15.6838C17.8949 15.3207 17.7508 14.8974 17.7251 14.459C17.6994 14.0205 17.793 13.5833 17.996 13.1938C18.277 12.6583 18.7499 12.2487 19.32 12.0468C19.9046 11.8411 20.4019 11.4426 20.73 10.9168C21.15 10.2438 21.884 10.1848 22.732 10.1848C23.062 10.1848 23.375 10.2548 23.666 10.3748C24.056 10.5448 24.493 10.5448 24.881 10.3748C25.168 10.2548 25.481 10.1848 25.811 10.1848C26.669 10.1848 27.426 10.2608 27.841 10.9488C28.155 11.4678 28.646 11.8448 29.219 12.0408Z" fill="url(#paint50_radial_346_158)"/>
<path d="M29.219 12.0408C29.743 12.2208 30.213 12.5868 30.509 13.1108C30.7363 13.5059 30.8469 13.9574 30.828 14.4128C30.809 14.8682 30.6613 15.309 30.402 15.6838C30.2237 15.9465 30.1276 16.2563 30.126 16.5738V17.7838C29.9204 17.6472 29.689 17.5542 29.446 17.5108L29.526 15.8748C29.5218 15.4988 29.3744 15.1385 29.1136 14.8676C28.8529 14.5966 28.4985 14.4354 28.123 14.4168H26.697C26.2197 14.4156 25.753 14.2761 25.3534 14.0152C24.9537 13.7543 24.6382 13.3832 24.445 12.9468C24.3944 12.8218 24.3078 12.7146 24.1961 12.6389C24.0845 12.5633 23.9528 12.5225 23.818 12.5218H22.522C20.642 12.5218 19.12 14.0618 19.12 15.9618L19.15 17.5278C18.8888 17.5609 18.6385 17.6529 18.418 17.7968V16.5738C18.4163 16.2563 18.3202 15.9465 18.142 15.6838C17.8949 15.3207 17.7508 14.8974 17.7251 14.459C17.6994 14.0205 17.793 13.5833 17.996 13.1938C18.277 12.6583 18.7499 12.2487 19.32 12.0468C19.9046 11.8411 20.4019 11.4426 20.73 10.9168C21.15 10.2438 21.884 10.1848 22.732 10.1848C23.062 10.1848 23.375 10.2548 23.666 10.3748C24.056 10.5448 24.493 10.5448 24.881 10.3748C25.168 10.2548 25.481 10.1848 25.811 10.1848C26.669 10.1848 27.426 10.2608 27.841 10.9488C28.155 11.4678 28.646 11.8448 29.219 12.0408Z" fill="url(#paint51_radial_346_158)"/>
</g>
<g filter="url(#filter11_i_346_158)">
<path d="M28.077 15.7708C27.8767 15.5821 27.6379 15.4392 27.377 15.3518C27.067 15.2548 26.679 15.2288 26.142 15.2938C26.1052 15.2983 26.0697 15.31 26.0374 15.3282C26.0052 15.3464 25.9768 15.3707 25.9539 15.3999C25.9311 15.4291 25.9142 15.4624 25.9043 15.4981C25.8943 15.5338 25.8915 15.5711 25.896 15.6078C25.9004 15.6446 25.9121 15.6801 25.9303 15.7124C25.9485 15.7447 25.9729 15.773 26.002 15.7959C26.0312 15.8187 26.0646 15.8356 26.1002 15.8455C26.1359 15.8555 26.1732 15.8583 26.21 15.8538C26.7 15.7938 27 15.8258 27.207 15.8908C27.409 15.9548 27.545 16.0578 27.705 16.1968C27.7619 16.2427 27.8344 16.2648 27.9072 16.2584C27.9801 16.2521 28.0477 16.2177 28.0958 16.1627C28.1439 16.1076 28.1688 16.036 28.1653 15.963C28.1618 15.8899 28.1301 15.8211 28.077 15.7708Z" fill="#202020"/>
</g>
<g filter="url(#filter12_i_346_158)">
<path d="M20.802 15.6598C21.3358 15.3469 21.9578 15.2183 22.572 15.2938C22.6089 15.298 22.6446 15.3095 22.677 15.3276C22.7095 15.3457 22.738 15.37 22.7611 15.3991C22.7841 15.4283 22.8011 15.4617 22.8112 15.4974C22.8213 15.5332 22.8242 15.5706 22.8198 15.6074C22.8154 15.6443 22.8037 15.68 22.7855 15.7123C22.7673 15.7447 22.7428 15.7731 22.7136 15.796C22.6843 15.8189 22.6508 15.8358 22.615 15.8457C22.5792 15.8556 22.5418 15.8584 22.505 15.8538C22.0149 15.7935 21.5187 15.8954 21.092 16.1438C21.0598 16.1627 21.0288 16.1834 20.999 16.2058L20.996 16.2078C20.9367 16.2537 20.8616 16.2741 20.7873 16.2646C20.7129 16.2552 20.6454 16.2166 20.5995 16.1573C20.5536 16.098 20.5331 16.0229 20.5426 15.9486C20.5521 15.8742 20.5907 15.8067 20.65 15.7608L20.802 15.6598Z" fill="#202020"/>
</g>
<g filter="url(#filter13_if_346_158)">
<path d="M24.512 13.087L24.445 12.948C24.3946 12.8227 24.308 12.7154 24.1964 12.6395C24.0847 12.5636 23.953 12.5227 23.818 12.522H22.522C20.642 12.522 19.12 14.062 19.12 15.962V16.242C18.774 15.979 18.338 15.424 18.338 14.524C18.338 13.433 19.134 12.881 19.642 12.529C19.785 12.43 19.906 12.347 19.979 12.271L20.08 12.165C20.436 11.787 21.07 11.115 22.178 10.821C22.6843 10.693 23.206 10.6364 23.728 10.653C24.2 10.666 24.534 11.073 24.534 11.547V13.074L24.512 13.087Z" fill="#23181C"/>
<path d="M24.512 13.087L24.445 12.948C24.3946 12.8227 24.308 12.7154 24.1964 12.6395C24.0847 12.5636 23.953 12.5227 23.818 12.522H22.522C20.642 12.522 19.12 14.062 19.12 15.962V16.242C18.774 15.979 18.338 15.424 18.338 14.524C18.338 13.433 19.134 12.881 19.642 12.529C19.785 12.43 19.906 12.347 19.979 12.271L20.08 12.165C20.436 11.787 21.07 11.115 22.178 10.821C22.6843 10.693 23.206 10.6364 23.728 10.653C24.2 10.666 24.534 11.073 24.534 11.547V13.074L24.512 13.087Z" fill="url(#paint52_radial_346_158)"/>
<path d="M24.512 13.087L24.445 12.948C24.3946 12.8227 24.308 12.7154 24.1964 12.6395C24.0847 12.5636 23.953 12.5227 23.818 12.522H22.522C20.642 12.522 19.12 14.062 19.12 15.962V16.242C18.774 15.979 18.338 15.424 18.338 14.524C18.338 13.433 19.134 12.881 19.642 12.529C19.785 12.43 19.906 12.347 19.979 12.271L20.08 12.165C20.436 11.787 21.07 11.115 22.178 10.821C22.6843 10.693 23.206 10.6364 23.728 10.653C24.2 10.666 24.534 11.073 24.534 11.547V13.074L24.512 13.087Z" fill="url(#paint53_radial_346_158)"/>
</g>
<g filter="url(#filter14_f_346_158)">
<path d="M29.583 16.413L29.553 15.771C29.543 14.993 28.9 14.351 28.123 14.319H26.697C25.792 14.319 24.967 13.824 24.534 13.036C24.534 13.036 24.469 12.886 24.404 12.631C24.155 11.659 25.081 10.918 26.067 11.106C27.065 11.298 28.209 11.633 29.053 12.183C30.829 13.342 30.518 15.43 29.583 16.413Z" fill="#1F151B"/>
<path d="M29.583 16.413L29.553 15.771C29.543 14.993 28.9 14.351 28.123 14.319H26.697C25.792 14.319 24.967 13.824 24.534 13.036C24.534 13.036 24.469 12.886 24.404 12.631C24.155 11.659 25.081 10.918 26.067 11.106C27.065 11.298 28.209 11.633 29.053 12.183C30.829 13.342 30.518 15.43 29.583 16.413Z" fill="url(#paint54_radial_346_158)"/>
<path d="M29.583 16.413L29.553 15.771C29.543 14.993 28.9 14.351 28.123 14.319H26.697C25.792 14.319 24.967 13.824 24.534 13.036C24.534 13.036 24.469 12.886 24.404 12.631C24.155 11.659 25.081 10.918 26.067 11.106C27.065 11.298 28.209 11.633 29.053 12.183C30.829 13.342 30.518 15.43 29.583 16.413Z" fill="url(#paint55_radial_346_158)"/>
<path d="M29.583 16.413L29.553 15.771C29.543 14.993 28.9 14.351 28.123 14.319H26.697C25.792 14.319 24.967 13.824 24.534 13.036C24.534 13.036 24.469 12.886 24.404 12.631C24.155 11.659 25.081 10.918 26.067 11.106C27.065 11.298 28.209 11.633 29.053 12.183C30.829 13.342 30.518 15.43 29.583 16.413Z" fill="url(#paint56_radial_346_158)"/>
</g>
<path d="M26.71 17.1099C27.375 17.1099 27.937 17.5679 28.09 18.1879C28.1002 18.2292 28.1008 18.2723 28.0918 18.3139C28.0828 18.3555 28.0645 18.3945 28.0382 18.428C28.0119 18.4615 27.9783 18.4885 27.9399 18.507C27.9016 18.5255 27.8596 18.535 27.817 18.5349H25.545C25.5105 18.535 25.4765 18.5275 25.4452 18.513C25.414 18.4985 25.3864 18.4772 25.3643 18.4507C25.3422 18.4243 25.3263 18.3933 25.3176 18.3599C25.3089 18.3266 25.3077 18.2917 25.314 18.2579C25.3772 17.9342 25.551 17.6426 25.8058 17.4331C26.0605 17.2236 26.3802 17.1093 26.71 17.1099Z" fill="white"/>
<path d="M26.499 17.386C26.6386 17.3861 26.7764 17.4184 26.9015 17.4804C27.0266 17.5425 27.1358 17.6325 27.2204 17.7436C27.3051 17.8546 27.363 17.9837 27.3896 18.1208C27.4163 18.2579 27.4109 18.3993 27.374 18.534H25.62C25.5838 18.3989 25.5792 18.2574 25.6064 18.1203C25.6337 17.9831 25.6921 17.8541 25.7771 17.7431C25.8622 17.6322 25.9716 17.5423 26.0969 17.4803C26.2223 17.4184 26.3592 17.3861 26.499 17.386Z" fill="url(#paint57_radial_346_158)"/>
<path d="M25.979 18.2949C25.979 18.0059 26.21 17.7749 26.499 17.7749C26.5887 17.7741 26.6771 17.7965 26.7555 17.8401C26.8339 17.8836 26.8997 17.9468 26.9464 18.0234C26.9931 18.1 27.019 18.1874 27.0218 18.2771C27.0245 18.3668 27.0039 18.4556 26.962 18.5349H26.041C25.9992 18.4619 25.9778 18.379 25.979 18.2949Z" fill="black"/>
<g filter="url(#filter15_f_346_158)">
<path d="M26.433 17.579C26.497 17.665 26.362 17.771 26.208 17.886C26.054 18.001 25.94 18.082 25.875 17.996C25.811 17.909 25.883 17.746 26.037 17.63C26.191 17.514 26.367 17.492 26.433 17.579Z" fill="#C7A7A3"/>
<path d="M26.433 17.579C26.497 17.665 26.362 17.771 26.208 17.886C26.054 18.001 25.94 18.082 25.875 17.996C25.811 17.909 25.883 17.746 26.037 17.63C26.191 17.514 26.367 17.492 26.433 17.579Z" fill="url(#paint58_radial_346_158)"/>
</g>
<g filter="url(#filter16_f_346_158)">
<path d="M27.308 18.1748C27.2813 17.9973 27.199 17.8327 27.073 17.7048L26.809 17.9948L26.928 18.2258L27.308 18.1748Z" fill="url(#paint59_linear_346_158)"/>
</g>
<path d="M21.84 17.1099C21.176 17.1099 20.614 17.5679 20.461 18.1879C20.4508 18.2292 20.4502 18.2723 20.4592 18.3139C20.4682 18.3555 20.4865 18.3945 20.5128 18.428C20.5391 18.4615 20.5727 18.4885 20.6111 18.507C20.6494 18.5255 20.6914 18.535 20.734 18.5349H23.006C23.15 18.5349 23.266 18.4029 23.237 18.2579C23.1721 17.935 22.9977 17.6445 22.7434 17.4354C22.489 17.2262 22.1693 17.1112 21.84 17.1099Z" fill="white"/>
<path d="M22.051 17.386C21.9113 17.3861 21.7736 17.4184 21.6484 17.4804C21.5233 17.5425 21.4142 17.6325 21.3295 17.7436C21.2449 17.8546 21.187 17.9837 21.1603 18.1208C21.1337 18.2579 21.1391 18.3993 21.176 18.534H22.931C22.9517 18.4556 22.9627 18.375 22.964 18.294C22.9621 18.0529 22.8652 17.8222 22.6942 17.6522C22.5233 17.4822 22.2921 17.3865 22.051 17.386Z" fill="url(#paint60_radial_346_158)"/>
<path d="M22.571 18.2949C22.571 18.157 22.5162 18.0247 22.4187 17.9272C22.3212 17.8297 22.1889 17.7749 22.051 17.7749C21.9614 17.7742 21.8731 17.7968 21.7948 17.8404C21.7165 17.8841 21.6509 17.9472 21.6044 18.0238C21.5578 18.1004 21.5319 18.1878 21.5292 18.2773C21.5265 18.3669 21.5471 18.4557 21.589 18.5349H22.509C22.5495 18.4614 22.5708 18.3789 22.571 18.2949Z" fill="black"/>
<g filter="url(#filter17_f_346_158)">
<path d="M22.882 18.1889C22.882 17.8949 22.643 17.6989 22.579 17.6389L22.285 17.9239L22.465 18.2919L22.882 18.1889Z" fill="url(#paint61_linear_346_158)"/>
</g>
<g filter="url(#filter18_f_346_158)">
<path d="M21.8711 17.9526C22.0648 17.8499 22.1798 17.6872 22.1278 17.5891C22.0758 17.491 21.8766 17.4947 21.6829 17.5973C21.4892 17.7 21.3742 17.8627 21.4262 17.9608C21.4782 18.0589 21.6773 18.0552 21.8711 17.9526Z" fill="#C7A7A3" fill-opacity="0.9"/>
<path d="M21.8711 17.9526C22.0648 17.8499 22.1798 17.6872 22.1278 17.5891C22.0758 17.491 21.8766 17.4947 21.6829 17.5973C21.4892 17.7 21.3742 17.8627 21.4262 17.9608C21.4782 18.0589 21.6773 18.0552 21.8711 17.9526Z" fill="url(#paint62_radial_346_158)"/>
</g>
<path d="M29.288 20.1699C29.356 19.0872 29.4186 18.0042 29.476 16.9209C29.8713 16.9909 30.2271 17.2035 30.4761 17.5184C30.725 17.8333 30.8497 18.2287 30.8266 18.6295C30.8034 19.0302 30.6339 19.4086 30.3503 19.6927C30.0667 19.9768 29.6887 20.146 29.288 20.1699Z" fill="url(#paint63_linear_346_158)"/>
<path d="M29.288 20.1699C29.356 19.0872 29.4186 18.0042 29.476 16.9209C29.8713 16.9909 30.2271 17.2035 30.4761 17.5184C30.725 17.8333 30.8497 18.2287 30.8266 18.6295C30.8034 19.0302 30.6339 19.4086 30.3503 19.6927C30.0667 19.9768 29.6887 20.146 29.288 20.1699Z" fill="url(#paint64_radial_346_158)"/>
<path d="M29.288 20.1699C29.356 19.0872 29.4186 18.0042 29.476 16.9209C29.8713 16.9909 30.2271 17.2035 30.4761 17.5184C30.725 17.8333 30.8497 18.2287 30.8266 18.6295C30.8034 19.0302 30.6339 19.4086 30.3503 19.6927C30.0667 19.9768 29.6887 20.146 29.288 20.1699Z" fill="url(#paint65_radial_346_158)"/>
<path d="M29.288 20.1699C29.356 19.0872 29.4186 18.0042 29.476 16.9209C29.8713 16.9909 30.2271 17.2035 30.4761 17.5184C30.725 17.8333 30.8497 18.2287 30.8266 18.6295C30.8034 19.0302 30.6339 19.4086 30.3503 19.6927C30.0667 19.9768 29.6887 20.146 29.288 20.1699Z" fill="url(#paint66_radial_346_158)"/>
<path d="M19.139 16.9119C18.7475 16.9677 18.3891 17.1623 18.129 17.4602C17.8689 17.758 17.7245 18.1394 17.722 18.5349C17.722 19.4099 18.407 20.1249 19.27 20.1709C19.2039 19.0855 19.1602 17.999 19.139 16.9119Z" fill="url(#paint67_linear_346_158)"/>
<path d="M19.139 16.9119C18.7475 16.9677 18.3891 17.1623 18.129 17.4602C17.8689 17.758 17.7245 18.1394 17.722 18.5349C17.722 19.4099 18.407 20.1249 19.27 20.1709C19.2039 19.0855 19.1602 17.999 19.139 16.9119Z" fill="url(#paint68_radial_346_158)"/>
<g filter="url(#filter19_f_346_158)">
<path d="M19.097 17.585C18.8746 17.6355 18.6771 17.7625 18.5389 17.9438C18.4006 18.1251 18.3304 18.3492 18.3406 18.577C18.3507 18.8047 18.4405 19.0217 18.5942 19.19C18.748 19.3584 18.956 19.4674 19.182 19.498C19.146 18.8607 19.1177 18.2229 19.097 17.585Z" fill="url(#paint69_radial_346_158)"/>
</g>
<g filter="url(#filter20_f_346_158)">
<path d="M29.373 19.5149C29.413 18.8689 29.4507 18.2229 29.486 17.5769C29.7303 17.6083 29.9537 17.7312 30.1109 17.9208C30.2682 18.1105 30.3476 18.3527 30.3333 18.5986C30.319 18.8445 30.2119 19.0759 30.0336 19.2459C29.8554 19.416 29.6193 19.5121 29.373 19.5149Z" fill="url(#paint70_linear_346_158)"/>
</g>
<g filter="url(#filter21_f_346_158)">
<path d="M20.84 15.9449C21.102 15.7569 21.754 15.4269 22.525 15.5569" stroke="#353535" stroke-width="0.075" stroke-linecap="round"/>
</g>
<g filter="url(#filter22_f_346_158)">
<path d="M27.902 15.8978C27.64 15.7098 26.988 15.3798 26.217 15.5098" stroke="#353535" stroke-width="0.075" stroke-linecap="round"/>
</g>
<g filter="url(#filter23_i_346_158)">
<path d="M17.977 13.228L19.187 11.255L29.445 11.146L30.562 13.166C25.898 14.775 20.066 13.962 17.977 13.228Z" fill="url(#paint71_radial_346_158)"/>
<path d="M17.977 13.228L19.187 11.255L29.445 11.146L30.562 13.166C25.898 14.775 20.066 13.962 17.977 13.228Z" fill="url(#paint72_radial_346_158)"/>
</g>
<path d="M32.233 11.6049H16.263C15.823 11.6049 15.463 11.2449 15.463 10.8049C15.463 10.3649 15.823 10.0049 16.263 10.0049H32.223C32.663 10.0049 33.023 10.3649 33.023 10.8049C33.033 11.2449 32.673 11.6049 32.233 11.6049Z" fill="url(#paint73_linear_346_158)"/>
<path d="M32.233 11.6049H16.263C15.823 11.6049 15.463 11.2449 15.463 10.8049C15.463 10.3649 15.823 10.0049 16.263 10.0049H32.223C32.663 10.0049 33.023 10.3649 33.023 10.8049C33.033 11.2449 32.673 11.6049 32.233 11.6049Z" fill="url(#paint74_radial_346_158)"/>
<path d="M32.233 11.6049H16.263C15.823 11.6049 15.463 11.2449 15.463 10.8049C15.463 10.3649 15.823 10.0049 16.263 10.0049H32.223C32.663 10.0049 33.023 10.3649 33.023 10.8049C33.033 11.2449 32.673 11.6049 32.233 11.6049Z" fill="url(#paint75_radial_346_158)"/>
<defs>
<filter id="filter0_f_346_158" x="21.916" y="18.2849" width="4.71995" height="8.96421" filterUnits="userSpaceOnUse" color-interpolation-filters="sRGB">
<feFlood flood-opacity="0" result="BackgroundImageFix"/>
<feBlend mode="normal" in="SourceGraphic" in2="BackgroundImageFix" result="shape"/>
<feGaussianBlur stdDeviation="0.1" result="effect1_foregroundBlur_346_158"/>
</filter>
<filter id="filter1_f_346_158" x="32.5635" y="11.584" width="0.324951" height="8.01709" filterUnits="userSpaceOnUse" color-interpolation-filters="sRGB">
<feFlood flood-opacity="0" result="BackgroundImageFix"/>
<feBlend mode="normal" in="SourceGraphic" in2="BackgroundImageFix" result="shape"/>
<feGaussianBlur stdDeviation="0.0625" result="effect1_foregroundBlur_346_158"/>
</filter>
<filter id="filter2_f_346_158" x="19.883" y="31.3559" width="8.814" height="6.58311" filterUnits="userSpaceOnUse" color-interpolation-filters="sRGB">
<feFlood flood-opacity="0" result="BackgroundImageFix"/>
<feBlend mode="normal" in="SourceGraphic" in2="BackgroundImageFix" result="shape"/>
<feGaussianBlur stdDeviation="0.0375" result="effect1_foregroundBlur_346_158"/>
</filter>
<filter id="filter3_f_346_158" x="25.471" y="11.6362" width="4.823" height="2.53369" filterUnits="userSpaceOnUse" color-interpolation-filters="sRGB">
<feFlood flood-opacity="0" result="BackgroundImageFix"/>
<feBlend mode="normal" in="SourceGraphic" in2="BackgroundImageFix" result="shape"/>
<feGaussianBlur stdDeviation="0.25" result="effect1_foregroundBlur_346_158"/>
</filter>
<filter id="filter4_f_346_158" x="25.471" y="11.5742" width="4.823" height="2.53271" filterUnits="userSpaceOnUse" color-interpolation-filters="sRGB">
<feFlood flood-opacity="0" result="BackgroundImageFix"/>
<feBlend mode="normal" in="SourceGraphic" in2="BackgroundImageFix" result="shape"/>
<feGaussianBlur stdDeviation="0.25" result="effect1_foregroundBlur_346_158"/>
</filter>
<filter id="filter5_f_346_158" x="25.6012" y="11.5889" width="4.95679" height="2.58203" filterUnits="userSpaceOnUse" color-interpolation-filters="sRGB">
<feFlood flood-opacity="0" result="BackgroundImageFix"/>
<feBlend mode="normal" in="SourceGraphic" in2="BackgroundImageFix" result="shape"/>
<feGaussianBlur stdDeviation="0.25" result="effect1_foregroundBlur_346_158"/>
</filter>
<filter id="filter6_ii_346_158" x="19.12" y="12.522" width="10.907" height="12.6669" filterUnits="userSpaceOnUse" color-interpolation-filters="sRGB">
<feFlood flood-opacity="0" result="BackgroundImageFix"/>
<feBlend mode="normal" in="SourceGraphic" in2="BackgroundImageFix" result="shape"/>
<feColorMatrix in="SourceAlpha" type="matrix" values="0 0 0 0 0 0 0 0 0 0 0 0 0 0 0 0 0 0 127 0" result="hardAlpha"/>
<feOffset dx="0.5"/>
<feGaussianBlur stdDeviation="0.35"/>
<feComposite in2="hardAlpha" operator="arithmetic" k2="-1" k3="1"/>
<feColorMatrix type="matrix" values="0 0 0 0 0.913725 0 0 0 0 0.686275 0 0 0 0 0.592157 0 0 0 1 0"/>
<feBlend mode="normal" in2="shape" result="effect1_innerShadow_346_158"/>
<feColorMatrix in="SourceAlpha" type="matrix" values="0 0 0 0 0 0 0 0 0 0 0 0 0 0 0 0 0 0 127 0" result="hardAlpha"/>
<feOffset dy="0.1"/>
<feGaussianBlur stdDeviation="0.1875"/>
<feComposite in2="hardAlpha" operator="arithmetic" k2="-1" k3="1"/>
<feColorMatrix type="matrix" values="0 0 0 0 0.780392 0 0 0 0 0.568627 0 0 0 0 0.486275 0 0 0 1 0"/>
<feBlend mode="normal" in2="effect1_innerShadow_346_158" result="effect2_innerShadow_346_158"/>
</filter>
<filter id="filter7_f_346_158" x="22.7414" y="17.4607" width="2.77887" height="3.95337" filterUnits="userSpaceOnUse" color-interpolation-filters="sRGB">
<feFlood flood-opacity="0" result="BackgroundImageFix"/>
<feBlend mode="normal" in="SourceGraphic" in2="BackgroundImageFix" result="shape"/>
<feGaussianBlur stdDeviation="0.25" result="effect1_foregroundBlur_346_158"/>
</filter>
<filter id="filter8_f_346_158" x="23.2199" y="17.6666" width="2.11119" height="3.15337" filterUnits="userSpaceOnUse" color-interpolation-filters="sRGB">
<feFlood flood-opacity="0" result="BackgroundImageFix"/>
<feBlend mode="normal" in="SourceGraphic" in2="BackgroundImageFix" result="shape"/>
<feGaussianBlur stdDeviation="0.05" result="effect1_foregroundBlur_346_158"/>
</filter>
<filter id="filter9_f_346_158" x="22.4744" y="21.2391" width="3.60037" height="1.41738" filterUnits="userSpaceOnUse" color-interpolation-filters="sRGB">
<feFlood flood-opacity="0" result="BackgroundImageFix"/>
<feBlend mode="normal" in="SourceGraphic" in2="BackgroundImageFix" result="shape"/>
<feGaussianBlur stdDeviation="0.025" result="effect1_foregroundBlur_346_158"/>
</filter>
<filter id="filter10_ii_346_158" x="17.7209" y="9.93481" width="13.1091" height="7.86206" filterUnits="userSpaceOnUse" color-interpolation-filters="sRGB">
<feFlood flood-opacity="0" result="BackgroundImageFix"/>
<feBlend mode="normal" in="SourceGraphic" in2="BackgroundImageFix" result="shape"/>
<feColorMatrix in="SourceAlpha" type="matrix" values="0 0 0 0 0 0 0 0 0 0 0 0 0 0 0 0 0 0 127 0" result="hardAlpha"/>
<feOffset dy="-0.25"/>
<feGaussianBlur stdDeviation="0.3125"/>
<feComposite in2="hardAlpha" operator="arithmetic" k2="-1" k3="1"/>
<feColorMatrix type="matrix" values="0 0 0 0 0.137255 0 0 0 0 0.0901961 0 0 0 0 0.145098 0 0 0 1 0"/>
<feBlend mode="normal" in2="shape" result="effect1_innerShadow_346_158"/>
<feColorMatrix in="SourceAlpha" type="matrix" values="0 0 0 0 0 0 0 0 0 0 0 0 0 0 0 0 0 0 127 0" result="hardAlpha"/>
<feOffset dy="-0.1"/>
<feGaussianBlur stdDeviation="0.1"/>
<feComposite in2="hardAlpha" operator="arithmetic" k2="-1" k3="1"/>
<feColorMatrix type="matrix" values="0 0 0 0 0.0784314 0 0 0 0 0.0352941 0 0 0 0 0.0470588 0 0 0 1 0"/>
<feBlend mode="normal" in2="effect1_innerShadow_346_158" result="effect2_innerShadow_346_158"/>
</filter>
<filter id="filter11_i_346_158" x="25.8939" y="15.1581" width="2.32167" height="1.10146" filterUnits="userSpaceOnUse" color-interpolation-filters="sRGB">
<feFlood flood-opacity="0" result="BackgroundImageFix"/>
<feBlend mode="normal" in="SourceGraphic" in2="BackgroundImageFix" result="shape"/>
<feColorMatrix in="SourceAlpha" type="matrix" values="0 0 0 0 0 0 0 0 0 0 0 0 0 0 0 0 0 0 127 0" result="hardAlpha"/>
<feOffset dx="0.05" dy="-0.1"/>
<feGaussianBlur stdDeviation="0.0625"/>
<feComposite in2="hardAlpha" operator="arithmetic" k2="-1" k3="1"/>
<feColorMatrix type="matrix" values="0 0 0 0 0.0588235 0 0 0 0 0.054902 0 0 0 0 0.0588235 0 0 0 1 0"/>
<feBlend mode="normal" in2="shape" result="effect1_innerShadow_346_158"/>
</filter>
<filter id="filter12_i_346_158" x="20.5403" y="15.1727" width="2.33143" height="1.09414" filterUnits="userSpaceOnUse" color-interpolation-filters="sRGB">
<feFlood flood-opacity="0" result="BackgroundImageFix"/>
<feBlend mode="normal" in="SourceGraphic" in2="BackgroundImageFix" result="shape"/>
<feColorMatrix in="SourceAlpha" type="matrix" values="0 0 0 0 0 0 0 0 0 0 0 0 0 0 0 0 0 0 127 0" result="hardAlpha"/>
<feOffset dx="0.05" dy="-0.1"/>
<feGaussianBlur stdDeviation="0.0625"/>
<feComposite in2="hardAlpha" operator="arithmetic" k2="-1" k3="1"/>
<feColorMatrix type="matrix" values="0 0 0 0 0.0588235 0 0 0 0 0.054902 0 0 0 0 0.0588235 0 0 0 1 0"/>
<feBlend mode="normal" in2="shape" result="effect1_innerShadow_346_158"/>
</filter>
<filter id="filter13_if_346_158" x="18.088" y="10.4001" width="6.69598" height="6.0918" filterUnits="userSpaceOnUse" color-interpolation-filters="sRGB">
<feFlood flood-opacity="0" result="BackgroundImageFix"/>
<feBlend mode="normal" in="SourceGraphic" in2="BackgroundImageFix" result="shape"/>
<feColorMatrix in="SourceAlpha" type="matrix" values="0 0 0 0 0 0 0 0 0 0 0 0 0 0 0 0 0 0 127 0" result="hardAlpha"/>
<feOffset dx="0.2" dy="0.1"/>
<feGaussianBlur stdDeviation="0.1"/>
<feComposite in2="hardAlpha" operator="arithmetic" k2="-1" k3="1"/>
<feColorMatrix type="matrix" values="0 0 0 0 0.286275 0 0 0 0 0.243137 0 0 0 0 0.227451 0 0 0 1 0"/>
<feBlend mode="normal" in2="shape" result="effect1_innerShadow_346_158"/>
<feGaussianBlur stdDeviation="0.125" result="effect2_foregroundBlur_346_158"/>
</filter>
<filter id="filter14_f_346_158" x="24.113" y="10.8267" width="6.47333" height="5.83618" filterUnits="userSpaceOnUse" color-interpolation-filters="sRGB">
<feFlood flood-opacity="0" result="BackgroundImageFix"/>
<feBlend mode="normal" in="SourceGraphic" in2="BackgroundImageFix" result="shape"/>
<feGaussianBlur stdDeviation="0.125" result="effect1_foregroundBlur_346_158"/>
</filter>
<filter id="filter15_f_346_158" x="25.8016" y="17.4759" width="0.697656" height="0.606104" filterUnits="userSpaceOnUse" color-interpolation-filters="sRGB">
<feFlood flood-opacity="0" result="BackgroundImageFix"/>
<feBlend mode="normal" in="SourceGraphic" in2="BackgroundImageFix" result="shape"/>
<feGaussianBlur stdDeviation="0.025" result="effect1_foregroundBlur_346_158"/>
</filter>
<filter id="filter16_f_346_158" x="26.709" y="17.6048" width="0.699023" height="0.720996" filterUnits="userSpaceOnUse" color-interpolation-filters="sRGB">
<feFlood flood-opacity="0" result="BackgroundImageFix"/>
<feBlend mode="normal" in="SourceGraphic" in2="BackgroundImageFix" result="shape"/>
<feGaussianBlur stdDeviation="0.05" result="effect1_foregroundBlur_346_158"/>
</filter>
<filter id="filter17_f_346_158" x="22.185" y="17.5389" width="0.796985" height="0.853076" filterUnits="userSpaceOnUse" color-interpolation-filters="sRGB">
<feFlood flood-opacity="0" result="BackgroundImageFix"/>
<feBlend mode="normal" in="SourceGraphic" in2="BackgroundImageFix" result="shape"/>
<feGaussianBlur stdDeviation="0.05" result="effect1_foregroundBlur_346_158"/>
</filter>
<filter id="filter18_f_346_158" x="21.3637" y="17.4678" width="0.826624" height="0.61416" filterUnits="userSpaceOnUse" color-interpolation-filters="sRGB">
<feFlood flood-opacity="0" result="BackgroundImageFix"/>
<feBlend mode="normal" in="SourceGraphic" in2="BackgroundImageFix" result="shape"/>
<feGaussianBlur stdDeviation="0.025" result="effect1_foregroundBlur_346_158"/>
</filter>
<filter id="filter19_f_346_158" x="18.2146" y="17.46" width="1.09241" height="2.16309" filterUnits="userSpaceOnUse" color-interpolation-filters="sRGB">
<feFlood flood-opacity="0" result="BackgroundImageFix"/>
<feBlend mode="normal" in="SourceGraphic" in2="BackgroundImageFix" result="shape"/>
<feGaussianBlur stdDeviation="0.0625" result="effect1_foregroundBlur_346_158"/>
</filter>
<filter id="filter20_f_346_158" x="29.123" y="17.3269" width="1.46198" height="2.43799" filterUnits="userSpaceOnUse" color-interpolation-filters="sRGB">
<feFlood flood-opacity="0" result="BackgroundImageFix"/>
<feBlend mode="normal" in="SourceGraphic" in2="BackgroundImageFix" result="shape"/>
<feGaussianBlur stdDeviation="0.125" result="effect1_foregroundBlur_346_158"/>
</filter>
<filter id="filter21_f_346_158" x="20.6775" y="15.3647" width="2.01001" height="0.742676" filterUnits="userSpaceOnUse" color-interpolation-filters="sRGB">
<feFlood flood-opacity="0" result="BackgroundImageFix"/>
<feBlend mode="normal" in="SourceGraphic" in2="BackgroundImageFix" result="shape"/>
<feGaussianBlur stdDeviation="0.0625" result="effect1_foregroundBlur_346_158"/>
</filter>
<filter id="filter22_f_346_158" x="26.0545" y="15.3176" width="2.01001" height="0.742676" filterUnits="userSpaceOnUse" color-interpolation-filters="sRGB">
<feFlood flood-opacity="0" result="BackgroundImageFix"/>
<feBlend mode="normal" in="SourceGraphic" in2="BackgroundImageFix" result="shape"/>
<feGaussianBlur stdDeviation="0.0625" result="effect1_foregroundBlur_346_158"/>
</filter>
<filter id="filter23_i_346_158" x="17.977" y="11.121" width="12.585" height="2.97593" filterUnits="userSpaceOnUse" color-interpolation-filters="sRGB">
<feFlood flood-opacity="0" result="BackgroundImageFix"/>
<feBlend mode="normal" in="SourceGraphic" in2="BackgroundImageFix" result="shape"/>
<feColorMatrix in="SourceAlpha" type="matrix" values="0 0 0 0 0 0 0 0 0 0 0 0 0 0 0 0 0 0 127 0" result="hardAlpha"/>
<feOffset dy="-0.025"/>
<feGaussianBlur stdDeviation="0.0125"/>
<feComposite in2="hardAlpha" operator="arithmetic" k2="-1" k3="1"/>
<feColorMatrix type="matrix" values="0 0 0 0 0.360784 0 0 0 0 0.337255 0 0 0 0 0.372549 0 0 0 1 0"/>
<feBlend mode="normal" in2="shape" result="effect1_innerShadow_346_158"/>
</filter>
<radialGradient id="paint0_radial_346_158" cx="0" cy="0" r="1" gradientUnits="userSpaceOnUse" gradientTransform="translate(31.592 31.1139) rotate(90) scale(10.875 3.65625)">
<stop stop-color="#70647F"/>
<stop offset="1" stop-color="#70647F" stop-opacity="0"/>
</radialGradient>
<radialGradient id="paint1_radial_346_158" cx="0" cy="0" r="1" gradientUnits="userSpaceOnUse" gradientTransform="translate(16.998 29.4579) scale(1.3125 7.0625)">
<stop stop-color="#5D516A"/>
<stop offset="1" stop-color="#5D516A" stop-opacity="0"/>
</radialGradient>
<radialGradient id="paint2_radial_346_158" cx="0" cy="0" r="1" gradientUnits="userSpaceOnUse" gradientTransform="translate(24.298 29.3489) rotate(-90) scale(4.71875 15.8584)">
<stop offset="0.201" stop-color="#46404E"/>
<stop offset="1" stop-color="#3A3142"/>
</radialGradient>
<radialGradient id="paint3_radial_346_158" cx="0" cy="0" r="1" gradientUnits="userSpaceOnUse" gradientTransform="translate(24.29 24.8959) rotate(90) scale(5.9375 7.54205)">
<stop offset="0.932" stop-color="#342542" stop-opacity="0"/>
<stop offset="0.995" stop-color="#342542"/>
</radialGradient>
<radialGradient id="paint4_radial_346_158" cx="0" cy="0" r="1" gradientUnits="userSpaceOnUse" gradientTransform="translate(23.873 23.5519) rotate(145.631) scale(7.1271 9.82595)">
<stop offset="0.928" stop-color="#6A656F" stop-opacity="0"/>
<stop offset="1" stop-color="#6A656F"/>
</radialGradient>
<radialGradient id="paint5_radial_346_158" cx="0" cy="0" r="1" gradientUnits="userSpaceOnUse" gradientTransform="translate(23.623 23.3179) rotate(34.266) scale(8.18659 11.2866)">
<stop offset="0.939" stop-color="#655F6B" stop-opacity="0"/>
<stop offset="0.971" stop-color="#655F6B"/>
</radialGradient>
<radialGradient id="paint6_radial_346_158" cx="0" cy="0" r="1" gradientUnits="userSpaceOnUse" gradientTransform="translate(24.29 31.6139) rotate(-90) scale(10.0625 10.6454)">
<stop offset="0.506" stop-color="#57525D" stop-opacity="0"/>
<stop offset="1" stop-color="#57525D"/>
</radialGradient>
<radialGradient id="paint7_radial_346_158" cx="0" cy="0" r="1" gradientUnits="userSpaceOnUse" gradientTransform="translate(24.29 24.0629) rotate(90) scale(3.40625 5.25876)">
<stop offset="0.422" stop-color="#170919"/>
<stop offset="1" stop-color="#361E27" stop-opacity="0"/>
</radialGradient>
<radialGradient id="paint8_radial_346_158" cx="0" cy="0" r="1" gradientUnits="userSpaceOnUse" gradientTransform="translate(25.594 26.22) rotate(-154.408) scale(3.29169 2.77147)">
<stop stop-color="#CD9E8E"/>
<stop offset="1" stop-color="#B78273"/>
</radialGradient>
<radialGradient id="paint9_radial_346_158" cx="0" cy="0" r="1" gradientUnits="userSpaceOnUse" gradientTransform="translate(24.276 24.985) rotate(90) scale(0.9375 2.06)">
<stop stop-color="#B0797E"/>
<stop offset="1" stop-color="#B0797E" stop-opacity="0"/>
</radialGradient>
<radialGradient id="paint10_radial_346_158" cx="0" cy="0" r="1" gradientUnits="userSpaceOnUse" gradientTransform="translate(24.276 22.544) rotate(90) scale(4.5407 4.26182)">
<stop offset="0.81" stop-color="#B5836A" stop-opacity="0"/>
<stop offset="1" stop-color="#B5836A"/>
</radialGradient>
<linearGradient id="paint11_linear_346_158" x1="31.98" y1="16.9419" x2="33.166" y2="16.9419" gradientUnits="userSpaceOnUse">
<stop stop-color="#33203C"/>
<stop offset="1" stop-color="#61546D"/>
</linearGradient>
<radialGradient id="paint12_radial_346_158" cx="0" cy="0" r="1" gradientUnits="userSpaceOnUse" gradientTransform="translate(32.865 19.6679) rotate(-90) scale(2.33473 0.18031)">
<stop stop-color="#70635D"/>
<stop offset="1" stop-color="#70635D" stop-opacity="0"/>
</radialGradient>
<radialGradient id="paint13_radial_346_158" cx="0" cy="0" r="1" gradientUnits="userSpaceOnUse" gradientTransform="translate(33.123 20.0398) rotate(126.437) scale(1.36813 1.22616)">
<stop stop-color="#686071"/>
<stop offset="0.661" stop-color="#402A4C"/>
</radialGradient>
<radialGradient id="paint14_radial_346_158" cx="0" cy="0" r="1" gradientUnits="userSpaceOnUse" gradientTransform="translate(31.785 20.4308) rotate(-6.43651) scale(0.801412 0.939976)">
<stop offset="0.087" stop-color="#685352"/>
<stop offset="1" stop-color="#685352" stop-opacity="0"/>
</radialGradient>
<linearGradient id="paint15_linear_346_158" x1="nan" y1="nan" x2="nan" y2="nan" gradientUnits="userSpaceOnUse">
<stop stop-color="#60546C"/>
<stop offset="1" stop-color="#504B55"/>
</linearGradient>
<linearGradient id="paint16_linear_346_158" x1="33.774" y1="22.8058" x2="31.455" y2="22.8058" gradientUnits="userSpaceOnUse">
<stop stop-color="#F9B72A"/>
<stop offset="0.897" stop-color="#FAAC28"/>
</linearGradient>
<linearGradient id="paint17_linear_346_158" x1="31.406" y1="22.6028" x2="32.469" y2="22.7278" gradientUnits="userSpaceOnUse">
<stop stop-color="#BD9130"/>
<stop offset="1" stop-color="#FBB229" stop-opacity="0"/>
</linearGradient>
<radialGradient id="paint18_radial_346_158" cx="0" cy="0" r="1" gradientUnits="userSpaceOnUse" gradientTransform="translate(33.8853 22.6845) rotate(169.33) scale(1.11532 5.56401)">
<stop offset="0.286" stop-color="#FFD93A"/>
<stop offset="1" stop-color="#FFD93A" stop-opacity="0"/>
</radialGradient>
<radialGradient id="paint19_radial_346_158" cx="0" cy="0" r="1" gradientUnits="userSpaceOnUse" gradientTransform="translate(32.623 24.8958) rotate(-90) scale(1.3125 2.89043)">
<stop offset="0.422" stop-color="#9B6733"/>
<stop offset="1" stop-color="#DB9820" stop-opacity="0"/>
</radialGradient>
<radialGradient id="paint20_radial_346_158" cx="0" cy="0" r="1" gradientUnits="userSpaceOnUse" gradientTransform="translate(32.623 21.1068) rotate(90) scale(0.39844 1.38177)">
<stop offset="0.161" stop-color="#845D03"/>
<stop offset="1" stop-color="#EBA429" stop-opacity="0"/>
</radialGradient>
<radialGradient id="paint21_radial_346_158" cx="0" cy="0" r="1" gradientUnits="userSpaceOnUse" gradientTransform="translate(13.295 37.995) rotate(-90) scale(16.3734 4.36464)">
<stop stop-color="#766C83"/>
<stop offset="0.441" stop-color="#58496A"/>
<stop offset="1" stop-color="#4D4159"/>
</radialGradient>
<radialGradient id="paint22_radial_346_158" cx="0" cy="0" r="1" gradientUnits="userSpaceOnUse" gradientTransform="translate(17.06 37.995) rotate(-90) scale(10.5202 0.82413)">
<stop offset="0.286" stop-color="#4F445B"/>
<stop offset="1" stop-color="#4F445B" stop-opacity="0"/>
</radialGradient>
<linearGradient id="paint23_linear_346_158" x1="17.205" y1="36.064" x2="16.779" y2="36.064" gradientUnits="userSpaceOnUse">
<stop offset="0.444" stop-color="#433850"/>
<stop offset="1" stop-color="#433850" stop-opacity="0"/>
</linearGradient>
<radialGradient id="paint24_radial_346_158" cx="0" cy="0" r="1" gradientUnits="userSpaceOnUse" gradientTransform="translate(33.402 37.995) rotate(-100.465) scale(10.3655 2.91129)">
<stop stop-color="#736782"/>
<stop offset="1" stop-color="#5F5070"/>
</radialGradient>
<radialGradient id="paint25_radial_346_158" cx="0" cy="0" r="1" gradientUnits="userSpaceOnUse" gradientTransform="translate(31.35 31.157) rotate(87.413) scale(12.0457 0.703477)">
<stop offset="0.177" stop-color="#3F2A51"/>
<stop offset="1" stop-color="#3F2A51" stop-opacity="0"/>
</radialGradient>
<linearGradient id="paint26_linear_346_158" x1="24.29" y1="37.8639" x2="24.29" y2="31.4309" gradientUnits="userSpaceOnUse">
<stop stop-color="#3F3748"/>
<stop offset="1" stop-color="#3F3748" stop-opacity="0"/>
</linearGradient>
<linearGradient id="paint27_linear_346_158" x1="24.29" y1="37.8639" x2="24.29" y2="31.4309" gradientUnits="userSpaceOnUse">
<stop stop-color="#3F3748"/>
<stop offset="1" stop-color="#3F3748" stop-opacity="0"/>
</linearGradient>
<linearGradient id="paint28_linear_346_158" x1="24.29" y1="37.8639" x2="24.29" y2="31.4309" gradientUnits="userSpaceOnUse">
<stop stop-color="#3F3748"/>
<stop offset="1" stop-color="#3F3748" stop-opacity="0"/>
</linearGradient>
<radialGradient id="paint29_radial_346_158" cx="0" cy="0" r="1" gradientUnits="userSpaceOnUse" gradientTransform="translate(29.116 19.7639) rotate(69.6568) scale(2.1932 2.60535)">
<stop offset="0.215" stop-color="#313131"/>
<stop offset="1" stop-color="#1A161E"/>
</radialGradient>
<radialGradient id="paint30_radial_346_158" cx="0" cy="0" r="1" gradientUnits="userSpaceOnUse" gradientTransform="translate(18.1083 20.2627) rotate(17.447) scale(1.57592 4.86181)">
<stop stop-color="#564943"/>
<stop offset="0.746" stop-color="#1E191C"/>
</radialGradient>
<radialGradient id="paint31_radial_346_158" cx="0" cy="0" r="1" gradientUnits="userSpaceOnUse" gradientTransform="translate(27.134 18.805) rotate(180) scale(5.32329 9.41684)">
<stop stop-color="#FFDCC0"/>
<stop offset="1" stop-color="#D6A195"/>
</radialGradient>
<linearGradient id="paint32_linear_346_158" x1="29.527" y1="20.521" x2="25.095" y2="20.521" gradientUnits="userSpaceOnUse">
<stop stop-color="#FFD6BA"/>
<stop offset="1" stop-color="#FFD6BA" stop-opacity="0"/>
</linearGradient>
<radialGradient id="paint33_radial_346_158" cx="0" cy="0" r="1" gradientUnits="userSpaceOnUse" gradientTransform="translate(24.8713 12.8112) rotate(90) scale(12.9682 10.7392)">
<stop offset="0.764" stop-color="#BE8689" stop-opacity="0"/>
<stop offset="0.981" stop-color="#A56F76"/>
</radialGradient>
<radialGradient id="paint34_radial_346_158" cx="0" cy="0" r="1" gradientUnits="userSpaceOnUse" gradientTransform="translate(26.767 17.468) rotate(-90) scale(1.16931 1.44703)">
<stop offset="0.325" stop-color="#F6B8A8"/>
<stop offset="1" stop-color="#F6B8A8" stop-opacity="0"/>
</radialGradient>
<radialGradient id="paint35_radial_346_158" cx="0" cy="0" r="1" gradientUnits="userSpaceOnUse" gradientTransform="translate(21.933 17.516) rotate(-89.7943) scale(1.11426 1.21258)">
<stop offset="0.378" stop-color="#D39991"/>
<stop offset="1" stop-color="#D39991" stop-opacity="0"/>
</radialGradient>
<radialGradient id="paint36_radial_346_158" cx="0" cy="0" r="1" gradientUnits="userSpaceOnUse" gradientTransform="translate(27.77 19.811) rotate(176.388) scale(8.6683 22.1432)">
<stop offset="0.836" stop-color="#E6AD97" stop-opacity="0"/>
<stop offset="1" stop-color="#E6AD97"/>
</radialGradient>
<radialGradient id="paint37_radial_346_158" cx="0" cy="0" r="1" gradientUnits="userSpaceOnUse" gradientTransform="translate(18.708 14.401) rotate(-46.6112) scale(4.59276 1.68127)">
<stop offset="0.428" stop-color="#9F6D5C"/>
<stop offset="1" stop-color="#9F6D5C" stop-opacity="0"/>
</radialGradient>
<radialGradient id="paint38_radial_346_158" cx="0" cy="0" r="1" gradientUnits="userSpaceOnUse" gradientTransform="translate(26.7467 13.7359) rotate(121.159) scale(3.43048 2.83214)">
<stop offset="0.078" stop-color="#F6C3B0"/>
<stop offset="1" stop-color="#F6C3B0" stop-opacity="0"/>
</radialGradient>
<radialGradient id="paint39_radial_346_158" cx="0" cy="0" r="1" gradientUnits="userSpaceOnUse" gradientTransform="translate(23.65 12.522) rotate(90) scale(2.35737 6.02695)">
<stop offset="0.502" stop-color="#BF8679"/>
<stop offset="1" stop-color="#BF8679" stop-opacity="0"/>
</radialGradient>
<linearGradient id="paint40_linear_346_158" x1="25.129" y1="19.4919" x2="24.276" y2="19.5279" gradientUnits="userSpaceOnUse">
<stop offset="0.36" stop-color="#FFDFC7"/>
<stop offset="1" stop-color="#FFDFC7" stop-opacity="0"/>
</linearGradient>
<radialGradient id="paint41_radial_346_158" cx="0" cy="0" r="1" gradientUnits="userSpaceOnUse" gradientTransform="translate(24.75 20.1899) rotate(90) scale(0.24856 0.78119)">
<stop stop-color="#FFDDC7"/>
<stop offset="1" stop-color="#FFDDC7" stop-opacity="0"/>
</radialGradient>
<linearGradient id="paint42_linear_346_158" x1="24.276" y1="20.6519" x2="24.276" y2="20.1789" gradientUnits="userSpaceOnUse">
<stop stop-color="#D89793"/>
<stop offset="1" stop-color="#D89793" stop-opacity="0"/>
</linearGradient>
<radialGradient id="paint43_radial_346_158" cx="0" cy="0" r="1" gradientUnits="userSpaceOnUse" gradientTransform="translate(24.8689 19.611) rotate(155.369) scale(1.70396 2.73839)">
<stop offset="0.714" stop-color="#D3968C" stop-opacity="0"/>
<stop offset="1" stop-color="#D3968C"/>
</radialGradient>
<linearGradient id="paint44_linear_346_158" x1="24.276" y1="17.7669" x2="24.276" y2="18.4539" gradientUnits="userSpaceOnUse">
<stop stop-color="#E8BBA8"/>
<stop offset="1" stop-color="#E8BBA8" stop-opacity="0"/>
</linearGradient>
<linearGradient id="paint45_linear_346_158" x1="23.052" y1="22.2519" x2="23.376" y2="21.4019" gradientUnits="userSpaceOnUse">
<stop stop-color="#E1ACA6"/>
<stop offset="1" stop-color="#E1ACA6" stop-opacity="0"/>
</linearGradient>
<radialGradient id="paint46_radial_346_158" cx="0" cy="0" r="1" gradientUnits="userSpaceOnUse" gradientTransform="translate(24.275 22.4099) rotate(-90) scale(0.7339 2.95264)">
<stop stop-color="#88014E"/>
<stop offset="1" stop-color="#86004D"/>
</radialGradient>
<linearGradient id="paint47_linear_346_158" x1="31.253" y1="13.0388" x2="19.428" y2="13.0388" gradientUnits="userSpaceOnUse">
<stop stop-color="#443D40"/>
<stop offset="1" stop-color="#272127"/>
</linearGradient>
<radialGradient id="paint48_radial_346_158" cx="0" cy="0" r="1" gradientUnits="userSpaceOnUse" gradientTransform="translate(18.95 15.8598) rotate(-90) scale(3.56524 9.01608)">
<stop offset="0.536" stop-color="#3E3433"/>
<stop offset="1" stop-color="#3E3433" stop-opacity="0"/>
</radialGradient>
<radialGradient id="paint49_radial_346_158" cx="0" cy="0" r="1" gradientUnits="userSpaceOnUse" gradientTransform="translate(29.225 17.1938) rotate(-87.4013) scale(2.56103 4.53767)">
<stop stop-color="#4F4D4D"/>
<stop offset="1" stop-color="#4F4D4D" stop-opacity="0"/>
</radialGradient>
<radialGradient id="paint50_radial_346_158" cx="0" cy="0" r="1" gradientUnits="userSpaceOnUse" gradientTransform="translate(28.4565 10.804) rotate(-146.667) scale(2.87483 2.11027)">
<stop stop-color="#5E5A5B"/>
<stop offset="1" stop-color="#5E5A5B" stop-opacity="0"/>
</radialGradient>
<radialGradient id="paint51_radial_346_158" cx="0" cy="0" r="1" gradientUnits="userSpaceOnUse" gradientTransform="translate(23.3534 9.18257) rotate(58.465) scale(1.76215 4.08032)">
<stop offset="0.287" stop-color="#484646"/>
<stop offset="1" stop-color="#484646" stop-opacity="0"/>
</radialGradient>
<radialGradient id="paint52_radial_346_158" cx="0" cy="0" r="1" gradientUnits="userSpaceOnUse" gradientTransform="translate(24.534 11.483) rotate(180) scale(2.24131 0.83184)">
<stop stop-color="#423C3F"/>
<stop offset="1" stop-color="#423C3F" stop-opacity="0"/>
</radialGradient>
<radialGradient id="paint53_radial_346_158" cx="0" cy="0" r="1" gradientUnits="userSpaceOnUse" gradientTransform="translate(18.746 15.4969) rotate(-57.724) scale(6.13664 6.79876)">
<stop offset="0.093" stop-color="#0B0306"/>
<stop offset="0.311" stop-color="#1C0C20"/>
<stop offset="1" stop-color="#1C0C20" stop-opacity="0"/>
</radialGradient>
<radialGradient id="paint54_radial_346_158" cx="0" cy="0" r="1" gradientUnits="userSpaceOnUse" gradientTransform="translate(27.752 12.273) scale(3.11422 1.21761)">
<stop stop-color="#4E494B"/>
<stop offset="1" stop-color="#4E494B" stop-opacity="0"/>
</radialGradient>
<radialGradient id="paint55_radial_346_158" cx="0" cy="0" r="1" gradientUnits="userSpaceOnUse" gradientTransform="translate(26.957 15.366) rotate(-43.614) scale(3.76743 6.89719)">
<stop offset="0.857" stop-color="#545051" stop-opacity="0"/>
<stop offset="1" stop-color="#545051"/>
</radialGradient>
<radialGradient id="paint56_radial_346_158" cx="0" cy="0" r="1" gradientUnits="userSpaceOnUse" gradientTransform="translate(26.055 13.863) rotate(6.66679) scale(3.33003 1.39423)">
<stop stop-color="#200E25"/>
<stop offset="1" stop-color="#200E25" stop-opacity="0"/>
</radialGradient>
<radialGradient id="paint57_radial_346_158" cx="0" cy="0" r="1" gradientUnits="userSpaceOnUse" gradientTransform="translate(26.497 17.872) rotate(90) scale(0.825701 1.31337)">
<stop offset="0.802" stop-color="#7D574A"/>
<stop offset="1" stop-color="#664842"/>
</radialGradient>
<radialGradient id="paint58_radial_346_158" cx="0" cy="0" r="1" gradientUnits="userSpaceOnUse" gradientTransform="translate(26.2651 17.9576) rotate(-127.812) scale(0.38519 0.53032)">
<stop offset="0.766" stop-color="#FFE6E2" stop-opacity="0"/>
<stop offset="0.966" stop-color="#FFE6E2"/>
</radialGradient>
<linearGradient id="paint59_linear_346_158" x1="27.288" y1="17.9268" x2="26.97" y2="18.1228" gradientUnits="userSpaceOnUse">
<stop stop-color="#B4948D"/>
<stop offset="1" stop-color="#B4948D" stop-opacity="0"/>
</linearGradient>
<radialGradient id="paint60_radial_346_158" cx="0" cy="0" r="1" gradientUnits="userSpaceOnUse" gradientTransform="translate(22.053 17.872) rotate(90) scale(0.825741 1.31344)">
<stop offset="0.802" stop-color="#7D574A"/>
<stop offset="1" stop-color="#664842"/>
</radialGradient>
<linearGradient id="paint61_linear_346_158" x1="22.811" y1="17.9269" x2="22.492" y2="18.1239" gradientUnits="userSpaceOnUse">
<stop stop-color="#B4948D"/>
<stop offset="1" stop-color="#B4948D" stop-opacity="0"/>
</linearGradient>
<radialGradient id="paint62_radial_346_158" cx="0" cy="0" r="1" gradientUnits="userSpaceOnUse" gradientTransform="translate(21.914 18.0656) rotate(-118.811) scale(0.503161 0.604824)">
<stop offset="0.766" stop-color="#FFE6E2" stop-opacity="0"/>
<stop offset="0.966" stop-color="#FFE6E2"/>
</radialGradient>
<linearGradient id="paint63_linear_346_158" x1="30.83" y1="17.9549" x2="29.601" y2="20.1709" gradientUnits="userSpaceOnUse">
<stop stop-color="#FFD6BD"/>
<stop offset="1" stop-color="#F0B8A6"/>
</linearGradient>
<radialGradient id="paint64_radial_346_158" cx="0" cy="0" r="1" gradientUnits="userSpaceOnUse" gradientTransform="translate(28.9786 17.8875) rotate(74.348) scale(2.3722 2.26326)">
<stop offset="0.856" stop-color="#CE978E" stop-opacity="0"/>
<stop offset="1" stop-color="#CE978E"/>
</radialGradient>
<radialGradient id="paint65_radial_346_158" cx="0" cy="0" r="1" gradientUnits="userSpaceOnUse" gradientTransform="translate(29.345 18.4409) rotate(-53.9199) scale(1.3621 1.14171)">
<stop offset="0.664" stop-color="#F7B99C"/>
<stop offset="1" stop-color="#F7B99C" stop-opacity="0"/>
</radialGradient>
<radialGradient id="paint66_radial_346_158" cx="0" cy="0" r="1" gradientUnits="userSpaceOnUse" gradientTransform="translate(29.461 18.6169) rotate(-69.2632) scale(1.68809 2.25552)">
<stop offset="0.803" stop-color="#EBBB9D" stop-opacity="0"/>
<stop offset="1" stop-color="#EBBB9D"/>
</radialGradient>
<linearGradient id="paint67_linear_346_158" x1="18.319" y1="18.6709" x2="19.804" y2="18.5419" gradientUnits="userSpaceOnUse">
<stop stop-color="#D19787"/>
<stop offset="1" stop-color="#C9887D"/>
</linearGradient>
<radialGradient id="paint68_radial_346_158" cx="0" cy="0" r="1" gradientUnits="userSpaceOnUse" gradientTransform="translate(19.27 18.5419) rotate(-173.034) scale(1.65483 1.77638)">
<stop offset="0.775" stop-color="#E8AF99" stop-opacity="0"/>
<stop offset="1" stop-color="#E8AF99"/>
</radialGradient>
<radialGradient id="paint69_radial_346_158" cx="0" cy="0" r="1" gradientUnits="userSpaceOnUse" gradientTransform="translate(19.27 18.541) rotate(170.26) scale(0.946361 1.16124)">
<stop stop-color="#C18472"/>
<stop offset="1" stop-color="#CA8B7A"/>
</radialGradient>
<linearGradient id="paint70_linear_346_158" x1="29.855" y1="17.5769" x2="29.855" y2="19.5149" gradientUnits="userSpaceOnUse">
<stop stop-color="#F9BB9E"/>
<stop offset="1" stop-color="#F6BBA0"/>
</linearGradient>
<radialGradient id="paint71_radial_346_158" cx="0" cy="0" r="1" gradientUnits="userSpaceOnUse" gradientTransform="translate(26.9018 13.9138) rotate(-100.732) scale(3.6749 8.45124)">
<stop stop-color="#534D5A"/>
<stop offset="1" stop-color="#372E41"/>
</radialGradient>
<radialGradient id="paint72_radial_346_158" cx="0" cy="0" r="1" gradientUnits="userSpaceOnUse" gradientTransform="translate(24.238 10.866) rotate(90) scale(1.99817 7.31619)">
<stop offset="0.263" stop-color="#160C20"/>
<stop offset="1" stop-color="#160C20" stop-opacity="0"/>
</radialGradient>
<linearGradient id="paint73_linear_346_158" x1="26.06" y1="11.9579" x2="24.779" y2="7.58288" gradientUnits="userSpaceOnUse">
<stop stop-color="#3D294B"/>
<stop offset="1" stop-color="#433A4D"/>
</linearGradient>
<radialGradient id="paint74_radial_346_158" cx="0" cy="0" r="1" gradientUnits="userSpaceOnUse" gradientTransform="translate(30.03 10.3959) rotate(90) scale(0.9375 12.6875)">
<stop stop-color="#6A6273"/>
<stop offset="0.867" stop-color="#696070" stop-opacity="0"/>
</radialGradient>
<radialGradient id="paint75_radial_346_158" cx="0" cy="0" r="1" gradientUnits="userSpaceOnUse" gradientTransform="translate(15.06 11.0209) scale(7.75 0.875)">
<stop stop-color="#75707B"/>
<stop offset="0.935" stop-color="#75707B" stop-opacity="0"/>
</radialGradient>
</defs>
</svg>
