<svg width="48" height="48" viewBox="0 0 48 48" fill="none" xmlns="http://www.w3.org/2000/svg">
<rect width="48" height="48" rx="8" fill="#849FE4"/>
<path d="M11.099 36.7379C11.099 36.7379 12.014 40.2519 17.7295 39.3524L18.706 37.0004L17.061 35.2124L12.5085 33.7114L11.1015 36.7379" fill="#34484C"/>
<path d="M29.316 30.152C29.316 31.398 28.677 31.7255 27.061 32.408L13.256 38.2365C12.9597 38.2366 12.6662 38.1784 12.3924 38.065C12.1186 37.9516 11.8698 37.7854 11.6603 37.5758C11.4508 37.3663 11.2846 37.1175 11.1713 36.8436C11.058 36.5698 10.9998 36.2763 11 35.98V16.585C11 15.338 11.733 14.923 13.256 14.3285L27.061 8.5C27.3572 8.5 27.6505 8.55836 27.9242 8.67175C28.1978 8.78513 28.4465 8.95133 28.6559 9.16083C28.8653 9.37033 29.0314 9.61904 29.1446 9.89274C29.2579 10.1664 29.3161 10.4598 29.316 10.756V30.156" fill="#085B50"/>
<path d="M12.255 37.9989C12.255 37.9989 17.4285 39.4839 17.73 39.3559C18.0325 39.2284 17.5375 37.1124 17.5375 37.1124L15.667 35.0959L13.924 35.0149L13.6175 35.4499L12.255 37.9989Z" fill="#34484C"/>
<path d="M26.736 9.84011L11.422 16.2731L12.14 20.3981L14.42 20.6246L22.0265 19.4001L26.7565 16.9216L30.239 12.1531C29.478 10.7881 28.361 9.94361 26.736 9.83911" fill="#F4F5F5"/>
<path d="M15.4795 17.7C15.4795 17.3375 15.5425 17.049 15.667 16.803C14.099 16.657 12.618 16.203 11.5395 15.2305C11.1815 15.5605 11.0045 15.9705 11.0045 16.5805V35.976C11.0046 36.5743 11.2424 37.1481 11.6654 37.5712C12.0884 37.9944 12.6622 38.2322 13.2605 38.2325L15.489 37.291C15.4825 37.2258 15.4791 37.1604 15.479 37.095L15.4795 17.7Z" fill="#34484C"/>
<path d="M34.189 32.0634C34.189 33.3094 33.5505 33.6369 31.933 34.3194L17.73 39.3544C17.4337 39.3545 17.1404 39.2962 16.8667 39.1828C16.5929 39.0694 16.3442 38.9033 16.1348 38.6938C15.9253 38.4842 15.7592 38.2355 15.6459 37.9618C15.5326 37.688 15.4744 37.3947 15.4745 37.0984V17.7034C15.4745 16.4559 16.2075 16.0414 17.73 15.4459L31.933 10.4104C32.2293 10.4103 32.5227 10.4685 32.7965 10.5819C33.0702 10.6952 33.319 10.8614 33.5285 11.0709C33.738 11.2804 33.9042 11.5291 34.0175 11.8029C34.1309 12.0767 34.1891 12.3701 34.189 12.6664V32.0664" fill="#089083"/>
<path d="M28.3095 16.33C28.3239 16.3674 28.3309 16.4072 28.3299 16.4473C28.3289 16.4874 28.32 16.5269 28.3038 16.5635C28.2875 16.6001 28.2642 16.6332 28.2352 16.6608C28.2061 16.6885 28.1719 16.7101 28.1345 16.7245L20.5795 19.639C20.5422 19.6535 20.5024 19.6604 20.4624 19.6594C20.4224 19.6584 20.383 19.6495 20.3464 19.6331C20.3099 19.6167 20.277 19.5932 20.2496 19.564C20.2223 19.5348 20.201 19.5005 20.187 19.463C20.1721 19.4259 20.1647 19.3861 20.1653 19.3461C20.166 19.3061 20.1746 19.2666 20.1907 19.23C20.2068 19.1934 20.2301 19.1604 20.2592 19.1329C20.2883 19.1054 20.3225 19.084 20.36 19.07L27.914 16.1555C28.0725 16.0955 28.249 16.1735 28.309 16.3305M28.3095 17.72C28.3239 17.7574 28.3309 17.7972 28.3299 17.8373C28.3289 17.8774 28.32 17.9169 28.3038 17.9535C28.2875 17.9901 28.2642 18.0232 28.2352 18.0508C28.2061 18.0785 28.1719 18.1001 28.1345 18.1145L20.5795 21.029C20.5423 21.0435 20.5025 21.0505 20.4625 21.0496C20.4226 21.0486 20.3832 21.0398 20.3467 21.0235C20.3102 21.0072 20.2773 20.9838 20.2499 20.9547C20.2224 20.9256 20.2011 20.8914 20.187 20.854C20.1721 20.8168 20.1648 20.777 20.1654 20.7369C20.1661 20.6969 20.1747 20.6574 20.1908 20.6207C20.2069 20.584 20.2302 20.5509 20.2592 20.5233C20.2883 20.4957 20.3225 20.4742 20.36 20.46L27.914 17.5455C27.9514 17.5309 27.9912 17.5239 28.0313 17.5248C28.0714 17.5257 28.1109 17.5344 28.1476 17.5506C28.1843 17.5667 28.2174 17.59 28.2451 17.619C28.2728 17.6479 28.2945 17.6821 28.309 17.7195M25.741 20.146C25.802 20.304 25.7645 20.464 25.656 20.506L20.498 22.495C20.39 22.536 20.254 22.442 20.194 22.285C20.134 22.127 20.1715 21.967 20.279 21.9265L25.438 19.9365C25.5445 19.8955 25.682 19.988 25.741 20.146Z" fill="#78111F"/>
</svg>
