<svg width="28" height="29" viewBox="0 0 28 29" fill="none" xmlns="http://www.w3.org/2000/svg">
<g id="devicon:linkedin" clip-path="url(#clip0_346_468)">
<path id="Vector" d="M25.375 0.765726H2.625C2.10882 0.760473 1.61163 0.960205 1.24254 1.32109C0.873449 1.68199 0.662596 2.17456 0.65625 2.69073V25.5326C0.663744 26.048 0.875101 26.5395 1.24407 26.8994C1.61304 27.2594 2.10957 27.4585 2.625 27.4532H25.375C25.8912 27.4573 26.3881 27.2569 26.757 26.8958C27.1259 26.5347 27.3368 26.0422 27.3438 25.526V2.68416C27.3345 2.16951 27.1226 1.67928 26.7539 1.32005C26.3853 0.960817 25.8897 0.761609 25.375 0.765726Z" fill="#0076B2"/>
<path id="Vector_2" d="M4.60687 10.769H8.56843V23.5156H4.60687V10.769ZM6.58875 4.42529C7.04312 4.42529 7.48728 4.56006 7.86505 4.81254C8.24281 5.06502 8.53721 5.42387 8.71099 5.8437C8.88477 6.26352 8.93013 6.72546 8.84133 7.17107C8.75252 7.61668 8.53355 8.02594 8.21211 8.34708C7.89066 8.66821 7.4812 8.8868 7.0355 8.97518C6.58981 9.06355 6.12791 9.01776 5.70825 8.84358C5.28859 8.66939 4.93002 8.37466 4.6779 7.99665C4.42578 7.61864 4.29144 7.17435 4.29187 6.71998C4.29245 6.11119 4.5347 5.52753 4.96538 5.09726C5.39607 4.66698 5.97996 4.42529 6.58875 4.42529ZM11.0534 10.769H14.8509V12.519H14.9034C15.4328 11.5172 16.7234 10.4606 18.6506 10.4606C22.6625 10.4519 23.4062 13.0922 23.4062 16.5156V23.5156H19.4447V17.314C19.4447 15.8375 19.4184 13.9365 17.3862 13.9365C15.3541 13.9365 15.0084 15.5465 15.0084 17.2178V23.5156H11.0534V10.769Z" fill="white"/>
</g>
<defs>
<clipPath id="clip0_346_468">
<rect width="28" height="28" fill="white" transform="translate(0 0.109375)"/>
</clipPath>
</defs>
</svg>
