<svg width="48" height="48" viewBox="0 0 48 48" fill="none" xmlns="http://www.w3.org/2000/svg">
<rect width="48" height="48" rx="8" fill="#849FE4"/>
<path d="M31.5556 22.3542H32.3889V34.2987H15.5V22.3542H16.3333H31.5556Z" fill="#FCEA2B"/>
<path d="M32.1911 22.4414L23.8489 34.2196H32.4302L32.1911 22.4414Z" fill="#F1B31C"/>
<path d="M28.4729 22.1409L28.5662 20.8511C28.7782 17.7467 26.4196 15.2143 23.8933 15.2983C21.8169 15.3676 20.064 17.2027 19.5253 19.432L17.7253 19.0311C18.4636 16.0569 20.9333 13.5996 23.8636 13.5076C27.4058 13.396 30.7124 16.7449 30.4156 20.8511L30.3076 22.1409" fill="#D0CFCE"/>
<path d="M28.4729 22.1409L28.5662 20.8511C28.7782 17.7467 26.4196 15.2143 23.8933 15.2983C21.8169 15.3676 20.064 17.2027 19.5253 19.432L17.7253 19.0311C18.4636 16.0569 20.9333 13.5996 23.8636 13.5076C27.4058 13.396 30.7124 16.7449 30.4156 20.8511L30.3076 22.1409" stroke="#D0CFCE" stroke-width="0.5" stroke-miterlimit="10" stroke-linejoin="round"/>
<path d="M28.5662 20.8511C28.7782 17.7463 26.4196 15.2143 23.8933 15.2983C21.8169 15.3676 20.064 17.2027 19.5253 19.432L17.7253 19.0311C18.4636 16.0569 20.9333 13.5996 23.8636 13.5076C27.4058 13.396 30.7124 16.7449 30.4156 20.8511M31.5556 22.3334H32.3889V34.2778H15.5V22.3334H16.3333H31.5556Z" stroke="black" stroke-width="0.5" stroke-miterlimit="10" stroke-linecap="round" stroke-linejoin="round"/>
</svg>
