<svg width="32" height="33" viewBox="0 0 32 33" fill="none" xmlns="http://www.w3.org/2000/svg">
<g id="logos:whatsapp-icon" clip-path="url(#clip0_346_88)">
<path id="Vector" d="M0.682888 16.307C0.682138 19.0166 1.39014 21.6624 2.73639 23.9944L0.554138 31.9621L8.70814 29.8241C10.9634 31.0519 13.4903 31.6952 16.0581 31.6954H16.0649C24.5418 31.6954 31.4421 24.7975 31.4458 16.3191C31.4474 12.2108 29.8489 8.34752 26.9446 5.44102C24.0409 2.53477 20.179 0.933394 16.0643 0.931519C7.58639 0.931519 0.686513 7.82902 0.683013 16.307" fill="url(#paint0_linear_346_88)"/>
<path id="Vector_2" d="M0.13375 16.302C0.132875 19.1091 0.86625 21.8495 2.2605 24.265L0 32.5184L8.44637 30.3037C10.7736 31.5726 13.3939 32.2416 16.0601 32.2426H16.067C24.848 32.2426 31.9963 25.0966 32 16.3147C32.0015 12.0588 30.3455 8.05662 27.3375 5.046C24.3291 2.03575 20.3291 0.37675 16.067 0.375C7.2845 0.375 0.13725 7.52 0.13375 16.302ZM5.16388 23.849L4.8485 23.3484C3.52275 21.2404 2.823 18.8044 2.824 16.303C2.82675 9.00363 8.76725 3.065 16.072 3.065C19.6095 3.0665 22.934 4.4455 25.4345 6.9475C27.9349 9.44975 29.3108 12.776 29.3099 16.3138C29.3066 23.6131 23.366 29.5525 16.067 29.5525H16.0618C13.6851 29.5513 11.3542 28.913 9.3215 27.7069L8.83775 27.42L3.8255 28.7341L5.16388 23.849Z" fill="url(#paint1_linear_346_88)"/>
<path id="Vector_3" d="M12.0848 9.64355C11.7865 8.98067 11.4726 8.9673 11.189 8.95567C10.9568 8.94567 10.6913 8.94642 10.426 8.94642C10.1605 8.94642 9.72913 9.0463 9.36451 9.44442C8.99951 9.84292 7.97101 10.8059 7.97101 12.7645C7.97101 14.7232 9.39763 16.6162 9.59651 16.882C9.79563 17.1474 12.3506 21.2954 16.3971 22.8912C19.7601 24.2173 20.4445 23.9535 21.1744 23.887C21.9044 23.8208 23.5299 22.9243 23.8615 21.9947C24.1934 21.0652 24.1934 20.2684 24.0939 20.1019C23.9944 19.936 23.7289 19.8364 23.3308 19.6374C22.9326 19.4384 20.9753 18.4752 20.6104 18.3423C20.2454 18.2095 19.98 18.1433 19.7145 18.5419C19.449 18.9399 18.6866 19.8364 18.4543 20.1019C18.2221 20.368 17.9898 20.4012 17.5918 20.202C17.1934 20.0023 15.9113 19.5824 14.3901 18.2263C13.2066 17.171 12.4076 15.8679 12.1754 15.4693C11.9431 15.0713 12.1505 14.8555 12.3501 14.6572C12.529 14.4788 12.7484 14.1923 12.9476 13.9599C13.1461 13.7274 13.2124 13.5615 13.3451 13.296C13.478 13.0303 13.4115 12.7978 13.3121 12.5987C13.2124 12.3995 12.4388 10.4307 12.0848 9.64355Z" fill="white"/>
</g>
<defs>
<linearGradient id="paint0_linear_346_88" x1="1545.14" y1="3103.99" x2="1545.14" y2="0.931519" gradientUnits="userSpaceOnUse">
<stop stop-color="#1FAF38"/>
<stop offset="1" stop-color="#60D669"/>
</linearGradient>
<linearGradient id="paint1_linear_346_88" x1="1600" y1="3214.71" x2="1600" y2="0.375" gradientUnits="userSpaceOnUse">
<stop stop-color="#F9F9F9"/>
<stop offset="1" stop-color="white"/>
</linearGradient>
<clipPath id="clip0_346_88">
<rect width="32" height="32.25" fill="white" transform="translate(0 0.375)"/>
</clipPath>
</defs>
</svg>
