<svg width="28" height="24" viewBox="0 0 28 24" fill="none" xmlns="http://www.w3.org/2000/svg">
<g id="logos:twitter" clip-path="url(#clip0_346_471)">
<path id="Vector" d="M28 3.46322C26.9515 3.92777 25.8394 4.23266 24.7006 4.36775C25.8868 3.65681 26.7975 2.53102 27.2264 1.18964C26.0988 1.85875 24.8651 2.3302 23.5786 2.58363C22.5307 1.46723 21.0378 0.769531 19.3855 0.769531C16.213 0.769531 13.6408 3.34159 13.6408 6.51391C13.6408 6.9642 13.6917 7.40258 13.7896 7.82313C9.01534 7.58348 4.78253 5.29656 1.94917 1.82106C1.4548 2.66948 1.17152 3.65638 1.17152 4.709C1.17152 6.70203 2.18575 8.46024 3.72706 9.49044C2.81481 9.46192 1.92263 9.21553 1.12503 8.77184C1.12474 8.79591 1.12463 8.82001 1.1247 8.84414C1.1247 11.6274 3.10483 13.9492 5.73267 14.477C4.88675 14.707 3.99944 14.7407 3.13852 14.5754C3.86947 16.8576 5.99102 18.5184 8.50467 18.5648C6.53866 20.1055 4.06164 21.0239 1.37036 21.0239C0.906609 21.0239 0.449422 20.9967 0 20.9436C2.5422 22.5735 5.56172 23.5246 8.80578 23.5246C19.3722 23.5246 25.1501 14.7712 25.1501 7.18011C25.1501 6.93095 25.1446 6.68322 25.1335 6.43691C26.258 5.62381 27.2287 4.61685 28 3.46322Z" fill="#55ACEE"/>
</g>
<defs>
<clipPath id="clip0_346_471">
<rect width="28" height="22.8594" fill="white" transform="translate(0 0.679688)"/>
</clipPath>
</defs>
</svg>
