<svg width="28" height="29" viewBox="0 0 28 29" fill="none" xmlns="http://www.w3.org/2000/svg">
<g id="logos:facebook" clip-path="url(#clip0_346_456)">
<path id="Vector" d="M28 14.1094C28 6.37744 21.7319 0.109375 14 0.109375C6.26806 0.109375 0 6.37744 0 14.1094C0 21.0971 5.11963 26.8891 11.8125 27.9393V18.1562H8.25781V14.1094H11.8125V11.025C11.8125 7.51625 13.9027 5.57812 17.1006 5.57812C18.6322 5.57812 20.2344 5.85156 20.2344 5.85156V9.29687H18.4691C16.7299 9.29687 16.1875 10.3761 16.1875 11.4833V14.1094H20.0703L19.4496 18.1562H16.1875V27.9393C22.8804 26.8891 28 21.0972 28 14.1094Z" fill="#1877F2"/>
<path id="Vector_2" d="M19.4496 18.1562L20.0703 14.1094H16.1875V11.4833C16.1875 10.376 16.7299 9.29688 18.4691 9.29688H20.2344V5.85156C20.2344 5.85156 18.6322 5.57812 17.1005 5.57812C13.9027 5.57812 11.8125 7.51625 11.8125 11.025V14.1094H8.25781V18.1562H11.8125V27.9393C12.5361 28.0527 13.2675 28.1095 14 28.1094C14.7325 28.1095 15.4639 28.0527 16.1875 27.9393V18.1562H19.4496Z" fill="white"/>
</g>
<defs>
<clipPath id="clip0_346_456">
<rect width="28" height="28" fill="white" transform="translate(0 0.109375)"/>
</clipPath>
</defs>
</svg>
