<svg width="28" height="29" viewBox="0 0 28 29" fill="none" xmlns="http://www.w3.org/2000/svg">
<g id="skill-icons:instagram" clip-path="url(#clip0_346_463)">
<g id="Group">
<path id="Vector" d="M21.4375 0.109375H6.5625C2.93813 0.109375 0 3.04751 0 6.67188V21.5469C0 25.1712 2.93813 28.1094 6.5625 28.1094H21.4375C25.0619 28.1094 28 25.1712 28 21.5469V6.67188C28 3.04751 25.0619 0.109375 21.4375 0.109375Z" fill="url(#paint0_radial_346_463)"/>
<path id="Vector_2" d="M21.4375 0.109375H6.5625C2.93813 0.109375 0 3.04751 0 6.67188V21.5469C0 25.1712 2.93813 28.1094 6.5625 28.1094H21.4375C25.0619 28.1094 28 25.1712 28 21.5469V6.67188C28 3.04751 25.0619 0.109375 21.4375 0.109375Z" fill="url(#paint1_radial_346_463)"/>
<path id="Vector_3" d="M14.001 3.17188C11.0306 3.17188 10.6577 3.18489 9.49113 3.23794C8.32672 3.29131 7.53189 3.47561 6.83648 3.74609C6.11702 4.02544 5.50681 4.39917 4.89891 5.0073C4.29045 5.61531 3.91672 6.22552 3.6365 6.94466C3.36525 7.64028 3.18073 8.43544 3.12834 9.5993C3.07617 10.766 3.0625 11.139 3.0625 14.1095C3.0625 17.08 3.07563 17.4517 3.12856 18.6182C3.18216 19.7827 3.36645 20.5775 3.63672 21.2729C3.91628 21.9924 4.29002 22.6026 4.89814 23.2105C5.50594 23.8189 6.11614 24.1935 6.83506 24.4729C7.53102 24.7434 8.32595 24.9277 9.49014 24.981C10.6568 25.0341 11.0294 25.0471 13.9997 25.0471C16.9704 25.0471 17.3421 25.0341 18.5087 24.981C19.6731 24.9277 20.4688 24.7434 21.1647 24.4729C21.8839 24.1935 22.4932 23.8189 23.1009 23.2105C23.7093 22.6026 24.083 21.9924 24.3633 21.2732C24.6321 20.5775 24.8167 19.7824 24.8714 18.6185C24.9238 17.4519 24.9375 17.08 24.9375 14.1095C24.9375 11.139 24.9238 10.7662 24.8714 9.59952C24.8167 8.43511 24.6321 7.64039 24.3633 6.94498C24.083 6.22552 23.7093 5.61531 23.1009 5.0073C22.4925 4.39895 21.8841 4.02522 21.1641 3.7462C20.4668 3.47561 19.6715 3.2912 18.5071 3.23794C17.3404 3.18489 16.969 3.17188 13.9976 3.17188H14.001ZM13.0198 5.14292C13.311 5.14248 13.636 5.14292 14.001 5.14292C16.9214 5.14292 17.2675 5.15342 18.4207 5.20581C19.4871 5.25459 20.0659 5.43277 20.4515 5.5825C20.9619 5.78069 21.3258 6.0177 21.7084 6.40062C22.0912 6.78344 22.3281 7.14798 22.5269 7.65844C22.6766 8.04344 22.855 8.62225 22.9036 9.68866C22.956 10.8417 22.9673 11.188 22.9673 14.107C22.9673 17.026 22.956 17.3724 22.9036 18.5253C22.8548 19.5917 22.6766 20.1705 22.5269 20.5556C22.3287 21.0661 22.0912 21.4295 21.7084 21.8121C21.3256 22.1949 20.9622 22.4318 20.4515 22.6301C20.0664 22.7805 19.4871 22.9583 18.4207 23.007C17.2677 23.0594 16.9214 23.0708 14.001 23.0708C11.0805 23.0708 10.7343 23.0594 9.58136 23.007C8.51495 22.9578 7.93614 22.7796 7.55027 22.6299C7.03992 22.4316 6.67527 22.1947 6.29245 21.8119C5.90964 21.4291 5.67273 21.0654 5.474 20.5547C5.32427 20.1696 5.14587 19.5908 5.09731 18.5244C5.04492 17.3714 5.03442 17.0251 5.03442 14.1042C5.03442 11.1834 5.04492 10.839 5.09731 9.68592C5.14609 8.61952 5.32427 8.0407 5.474 7.65516C5.6723 7.1447 5.90964 6.78016 6.29256 6.39734C6.67548 6.01453 7.03992 5.77752 7.55037 5.57889C7.93592 5.4285 8.51495 5.25077 9.58136 5.20177C10.5903 5.15616 10.9814 5.14248 13.0198 5.14019V5.14292ZM19.8394 6.95898C19.1148 6.95898 18.5269 7.54633 18.5269 8.27105C18.5269 8.99566 19.1148 9.58355 19.8394 9.58355C20.564 9.58355 21.1519 8.99566 21.1519 8.27105C21.1519 7.54644 20.564 6.95855 19.8394 6.95855V6.95898ZM14.001 8.49253C10.8991 8.49253 8.38414 11.0075 8.38414 14.1095C8.38414 17.2115 10.8991 19.7252 14.001 19.7252C17.103 19.7252 19.6171 17.2115 19.6171 14.1095C19.6171 11.0076 17.1028 8.49253 14.0008 8.49253H14.001ZM14.001 10.4636C16.0145 10.4636 17.6469 12.0958 17.6469 14.1095C17.6469 16.123 16.0145 17.7554 14.001 17.7554C11.9875 17.7554 10.3552 16.123 10.3552 14.1095C10.3552 12.0958 11.9874 10.4636 14.001 10.4636Z" fill="white"/>
</g>
</g>
<defs>
<radialGradient id="paint0_radial_346_463" cx="0" cy="0" r="1" gradientUnits="userSpaceOnUse" gradientTransform="translate(7.4375 30.2659) rotate(-90) scale(27.7501 25.8098)">
<stop stop-color="#FFDD55"/>
<stop offset="0.1" stop-color="#FFDD55"/>
<stop offset="0.5" stop-color="#FF543E"/>
<stop offset="1" stop-color="#C837AB"/>
</radialGradient>
<radialGradient id="paint1_radial_346_463" cx="0" cy="0" r="1" gradientUnits="userSpaceOnUse" gradientTransform="translate(-4.69011 2.12636) rotate(78.681) scale(12.4044 51.1315)">
<stop stop-color="#3771C8"/>
<stop offset="0.128" stop-color="#3771C8"/>
<stop offset="1" stop-color="#6600FF" stop-opacity="0"/>
</radialGradient>
<clipPath id="clip0_346_463">
<rect width="28" height="28" fill="white" transform="translate(0 0.109375)"/>
</clipPath>
</defs>
</svg>
